<?xml version="1.0" encoding="utf-8"?>
<!-- Generator: Adobe Illustrator 22.0.1, SVG Export Plug-In . SVG Version: 6.00 Build 0)  -->
<svg version="1.1" id="Layer_1" xmlns="http://www.w3.org/2000/svg" xmlns:xlink="http://www.w3.org/1999/xlink" x="0px" y="0px"
	 viewBox="0 0 1704.4 1236.2" style="enable-background:new 0 0 1704.4 1236.2;" xml:space="preserve">
<style type="text/css">
	.st0{fill:#646464;}
	.st1{fill:none;stroke:#D4D4D4;stroke-width:10.8;stroke-linecap:round;stroke-linejoin:round;}
	.st2{fill:#3E3E3E;}
	.st3{fill:#AEB0AE;}
	.st4{fill:#2D2D2D;}
	.st5{fill:none;stroke:#000000;stroke-width:1.44;}
	.st6{fill:#FFFFFF;}
	.st7{fill:#CC2031;}
</style>
<g>
	<g>
		<g>
			<circle class="st0" cx="168.2" cy="518.4" r="18"/>
			<circle class="st1" cx="168.2" cy="518.4" r="18"/>
			<circle class="st0" cx="240.2" cy="518.4" r="18"/>
			<circle class="st1" cx="240.2" cy="518.4" r="18"/>
			<circle class="st0" cx="312.2" cy="518.4" r="18"/>
			<circle class="st1" cx="312.2" cy="518.4" r="18"/>
			<circle class="st0" cx="384.2" cy="518.4" r="18"/>
			<circle class="st1" cx="384.2" cy="518.4" r="18"/>
			<circle class="st0" cx="456.2" cy="518.4" r="18"/>
			<circle class="st1" cx="456.2" cy="518.4" r="18"/>
			<circle class="st0" cx="528.2" cy="518.4" r="18"/>
			<circle class="st1" cx="528.2" cy="518.4" r="18"/>
			<circle class="st0" cx="600.2" cy="518.4" r="18"/>
			<circle class="st1" cx="600.2" cy="518.4" r="18"/>
			<circle class="st0" cx="672.2" cy="518.4" r="18"/>
			<circle class="st1" cx="672.2" cy="518.4" r="18"/>
			<circle class="st0" cx="744.2" cy="518.4" r="18"/>
			<circle class="st1" cx="744.2" cy="518.4" r="18"/>
			<circle class="st0" cx="816.2" cy="518.4" r="18"/>
			<circle class="st1" cx="816.2" cy="518.4" r="18"/>
			<circle class="st0" cx="888.2" cy="518.4" r="18"/>
			<circle class="st1" cx="888.2" cy="518.4" r="18"/>
			<circle class="st0" cx="960.2" cy="518.4" r="18"/>
			<circle class="st1" cx="960.2" cy="518.4" r="18"/>
			<circle class="st0" cx="1032.2" cy="518.4" r="18"/>
			<circle class="st1" cx="1032.2" cy="518.4" r="18"/>
			<circle class="st0" cx="1104.2" cy="518.4" r="18"/>
			<circle class="st1" cx="1104.2" cy="518.4" r="18"/>
			<circle class="st0" cx="1176.2" cy="518.4" r="18"/>
			<circle class="st1" cx="1176.2" cy="518.4" r="18"/>
			<circle class="st0" cx="1248.2" cy="518.4" r="18"/>
			<circle class="st1" cx="1248.2" cy="518.4" r="18"/>
			<circle class="st0" cx="1320.2" cy="518.4" r="18"/>
			<circle class="st1" cx="1320.2" cy="518.4" r="18"/>
			<circle class="st0" cx="1392.2" cy="518.4" r="18"/>
			<circle class="st1" cx="1392.2" cy="518.4" r="18"/>
			<circle class="st0" cx="1464.2" cy="518.4" r="18"/>
			<circle class="st1" cx="1464.2" cy="518.4" r="18"/>
			<circle class="st0" cx="1536.2" cy="518.4" r="18"/>
			<circle class="st1" cx="1536.2" cy="518.4" r="18"/>
			
				<ellipse transform="matrix(0.1602 -0.9871 0.9871 0.1602 -22.2003 305.0806)" class="st0" cx="168.2" cy="165.6" rx="18" ry="18"/>
			
				<ellipse transform="matrix(0.1602 -0.9871 0.9871 0.1602 -22.2003 305.0806)" class="st1" cx="168.2" cy="165.6" rx="18" ry="18"/>
			
				<ellipse transform="matrix(0.1602 -0.9871 0.9871 0.1602 38.2666 376.1508)" class="st0" cx="240.2" cy="165.6" rx="18" ry="18"/>
			
				<ellipse transform="matrix(0.1602 -0.9871 0.9871 0.1602 38.2666 376.1508)" class="st1" cx="240.2" cy="165.6" rx="18" ry="18"/>
			
				<ellipse transform="matrix(0.1602 -0.9871 0.9871 0.1602 98.7334 447.2211)" class="st0" cx="312.2" cy="165.6" rx="18" ry="18"/>
			
				<ellipse transform="matrix(0.1602 -0.9871 0.9871 0.1602 98.7334 447.2211)" class="st1" cx="312.2" cy="165.6" rx="18" ry="18"/>
			
				<ellipse transform="matrix(0.1602 -0.9871 0.9871 0.1602 159.2003 518.2914)" class="st0" cx="384.2" cy="165.6" rx="18" ry="18"/>
			
				<ellipse transform="matrix(0.1602 -0.9871 0.9871 0.1602 159.2003 518.2914)" class="st1" cx="384.2" cy="165.6" rx="18" ry="18"/>
			
				<ellipse transform="matrix(0.1602 -0.9871 0.9871 0.1602 219.6671 589.3617)" class="st0" cx="456.2" cy="165.6" rx="18" ry="18"/>
			
				<ellipse transform="matrix(0.1602 -0.9871 0.9871 0.1602 219.6671 589.3617)" class="st1" cx="456.2" cy="165.6" rx="18" ry="18"/>
			
				<ellipse transform="matrix(0.1602 -0.9871 0.9871 0.1602 280.1339 660.432)" class="st0" cx="528.2" cy="165.6" rx="18" ry="18"/>
			
				<ellipse transform="matrix(0.1602 -0.9871 0.9871 0.1602 280.1339 660.432)" class="st1" cx="528.2" cy="165.6" rx="18" ry="18"/>
			
				<ellipse transform="matrix(0.1602 -0.9871 0.9871 0.1602 340.6008 731.5023)" class="st0" cx="600.2" cy="165.6" rx="18" ry="18"/>
			
				<ellipse transform="matrix(0.1602 -0.9871 0.9871 0.1602 340.6008 731.5023)" class="st1" cx="600.2" cy="165.6" rx="18" ry="18"/>
			
				<ellipse transform="matrix(0.1602 -0.9871 0.9871 0.1602 401.0676 802.5726)" class="st0" cx="672.2" cy="165.6" rx="18" ry="18"/>
			
				<ellipse transform="matrix(0.1602 -0.9871 0.9871 0.1602 401.0676 802.5726)" class="st1" cx="672.2" cy="165.6" rx="18" ry="18"/>
			
				<ellipse transform="matrix(0.1602 -0.9871 0.9871 0.1602 461.5345 873.6429)" class="st0" cx="744.2" cy="165.6" rx="18" ry="18"/>
			
				<ellipse transform="matrix(0.1602 -0.9871 0.9871 0.1602 461.5345 873.6429)" class="st1" cx="744.2" cy="165.6" rx="18" ry="18"/>
			
				<ellipse transform="matrix(0.1602 -0.9871 0.9871 0.1602 522.0013 944.7132)" class="st0" cx="816.2" cy="165.6" rx="18" ry="18"/>
			
				<ellipse transform="matrix(0.1602 -0.9871 0.9871 0.1602 522.0013 944.7132)" class="st1" cx="816.2" cy="165.6" rx="18" ry="18"/>
			
				<ellipse transform="matrix(0.1602 -0.9871 0.9871 0.1602 582.4681 1015.7834)" class="st0" cx="888.2" cy="165.6" rx="18" ry="18"/>
			
				<ellipse transform="matrix(0.1602 -0.9871 0.9871 0.1602 582.4681 1015.7834)" class="st1" cx="888.2" cy="165.6" rx="18" ry="18"/>
			
				<ellipse transform="matrix(0.1602 -0.9871 0.9871 0.1602 642.935 1086.8538)" class="st0" cx="960.2" cy="165.6" rx="18" ry="18"/>
			
				<ellipse transform="matrix(0.1602 -0.9871 0.9871 0.1602 642.935 1086.8538)" class="st1" cx="960.2" cy="165.6" rx="18" ry="18"/>
			
				<ellipse transform="matrix(0.1602 -0.9871 0.9871 0.1602 703.4019 1157.9241)" class="st0" cx="1032.2" cy="165.6" rx="18" ry="18"/>
			
				<ellipse transform="matrix(0.1602 -0.9871 0.9871 0.1602 703.4019 1157.9241)" class="st1" cx="1032.2" cy="165.6" rx="18" ry="18"/>
			
				<ellipse transform="matrix(0.1602 -0.9871 0.9871 0.1602 763.8687 1228.9944)" class="st0" cx="1104.2" cy="165.6" rx="18" ry="18"/>
			
				<ellipse transform="matrix(0.1602 -0.9871 0.9871 0.1602 763.8687 1228.9944)" class="st1" cx="1104.2" cy="165.6" rx="18" ry="18"/>
			
				<ellipse transform="matrix(0.1602 -0.9871 0.9871 0.1602 824.3355 1300.0646)" class="st0" cx="1176.2" cy="165.6" rx="18" ry="18"/>
			
				<ellipse transform="matrix(0.1602 -0.9871 0.9871 0.1602 824.3355 1300.0646)" class="st1" cx="1176.2" cy="165.6" rx="18" ry="18"/>
			
				<ellipse transform="matrix(0.1602 -0.9871 0.9871 0.1602 884.8024 1371.1349)" class="st0" cx="1248.2" cy="165.6" rx="18" ry="18"/>
			
				<ellipse transform="matrix(0.1602 -0.9871 0.9871 0.1602 884.8024 1371.1349)" class="st1" cx="1248.2" cy="165.6" rx="18" ry="18"/>
			
				<ellipse transform="matrix(0.1602 -0.9871 0.9871 0.1602 945.2692 1442.2052)" class="st0" cx="1320.2" cy="165.6" rx="18" ry="18"/>
			
				<ellipse transform="matrix(0.1602 -0.9871 0.9871 0.1602 945.2692 1442.2052)" class="st1" cx="1320.2" cy="165.6" rx="18" ry="18"/>
			
				<ellipse transform="matrix(0.1602 -0.9871 0.9871 0.1602 1005.736 1513.2755)" class="st0" cx="1392.2" cy="165.6" rx="18" ry="18"/>
			
				<ellipse transform="matrix(0.1602 -0.9871 0.9871 0.1602 1005.736 1513.2755)" class="st1" cx="1392.2" cy="165.6" rx="18" ry="18"/>
			
				<ellipse transform="matrix(0.1602 -0.9871 0.9871 0.1602 1066.2029 1584.3458)" class="st0" cx="1464.2" cy="165.6" rx="18" ry="18"/>
			
				<ellipse transform="matrix(0.1602 -0.9871 0.9871 0.1602 1066.2029 1584.3458)" class="st1" cx="1464.2" cy="165.6" rx="18" ry="18"/>
			
				<ellipse transform="matrix(0.1602 -0.9871 0.9871 0.1602 1126.6697 1655.4161)" class="st0" cx="1536.2" cy="165.6" rx="18" ry="18"/>
			
				<ellipse transform="matrix(0.1602 -0.9871 0.9871 0.1602 1126.6697 1655.4161)" class="st1" cx="1536.2" cy="165.6" rx="18" ry="18"/>
			<rect x="123.2" y="179.9" class="st2" width="1458" height="324"/>
			<rect x="141.2" y="161.9" class="st3" width="54" height="18"/>
			<rect x="213.2" y="161.9" class="st3" width="54" height="18"/>
			<rect x="285.2" y="161.9" class="st3" width="54" height="18"/>
			<rect x="357.2" y="161.9" class="st3" width="54" height="18"/>
			<rect x="429.2" y="161.9" class="st3" width="54" height="18"/>
			<rect x="501.2" y="161.9" class="st3" width="54" height="18"/>
			<rect x="573.2" y="161.9" class="st3" width="54" height="18"/>
			<rect x="645.2" y="161.9" class="st3" width="54" height="18"/>
			<rect x="717.2" y="161.9" class="st3" width="54" height="18"/>
			<rect x="789.2" y="161.9" class="st3" width="54" height="18"/>
			<rect x="861.2" y="161.9" class="st3" width="54" height="18"/>
			<rect x="933.2" y="161.9" class="st3" width="54" height="18"/>
			<rect x="1005.2" y="161.9" class="st3" width="54" height="18"/>
			<rect x="1077.2" y="161.9" class="st3" width="54" height="18"/>
			<rect x="1149.2" y="161.9" class="st3" width="54" height="18"/>
			<rect x="1221.2" y="161.9" class="st3" width="54" height="18"/>
			<rect x="1293.2" y="161.9" class="st3" width="54" height="18"/>
			<rect x="1365.2" y="161.9" class="st3" width="54" height="18"/>
			<rect x="1437.2" y="161.9" class="st3" width="54" height="18"/>
			<rect x="1509.2" y="161.9" class="st3" width="54" height="18"/>
			<rect x="141.2" y="503.9" class="st3" width="54" height="18"/>
			<rect x="213.2" y="503.9" class="st3" width="54" height="18"/>
			<rect x="285.2" y="503.9" class="st3" width="54" height="18"/>
			<rect x="357.2" y="503.9" class="st3" width="54" height="18"/>
			<rect x="429.2" y="503.9" class="st3" width="54" height="18"/>
			<rect x="501.2" y="503.9" class="st3" width="54" height="18"/>
			<rect x="573.2" y="503.9" class="st3" width="54" height="18"/>
			<rect x="645.2" y="503.9" class="st3" width="54" height="18"/>
			<rect x="717.2" y="503.9" class="st3" width="54" height="18"/>
			<rect x="789.2" y="503.9" class="st3" width="54" height="18"/>
			<rect x="861.2" y="503.9" class="st3" width="54" height="18"/>
			<rect x="933.2" y="503.9" class="st3" width="54" height="18"/>
			<rect x="1005.2" y="503.9" class="st3" width="54" height="18"/>
			<rect x="1077.2" y="503.9" class="st3" width="54" height="18"/>
			<rect x="1149.2" y="503.9" class="st3" width="54" height="18"/>
			<rect x="1221.2" y="503.9" class="st3" width="54" height="18"/>
			<rect x="1293.2" y="503.9" class="st3" width="54" height="18"/>
			<rect x="1365.2" y="503.9" class="st3" width="54" height="18"/>
			<rect x="1437.2" y="503.9" class="st3" width="54" height="18"/>
			<rect x="1509.2" y="503.9" class="st3" width="54" height="18"/>
			<path class="st4" d="M1581.2,287.9c-29.8,0-54,24.2-54,54c0,29.8,24.2,54,54,54"/>
			<path class="st5" d="M1581.2,287.9c-29.8,0-54,24.2-54,54c0,29.8,24.2,54,54,54"/>
			
				<ellipse transform="matrix(0.9239 -0.3827 0.3827 0.9239 -159.8445 96.9163)" class="st4" cx="163.7" cy="450.3" rx="18" ry="18"/>
			
				<ellipse transform="matrix(0.9239 -0.3827 0.3827 0.9239 -159.8445 96.9163)" class="st5" cx="163.7" cy="450.3" rx="18" ry="18"/>
		</g>
		<g>
			<path class="st6" d="M838.4,389.3c-1.9-0.5-4.5-2.2-5.8-3.9c-0.6-0.7-1.8-2.9-2.8-4.8c-1.5-3-1.7-3.6-1.4-4.5
				c0.4-1.4,0.1-3.3-1-6c-0.7-1.8-0.8-2.3-0.4-2.4c0.3-0.1,0.8-0.5,1.2-0.9c0.6-0.6,0.7-1,0.6-2.2l-0.2-1.4l3.3-0.7
				c1.8-0.4,5.7-0.9,8.8-1.1c5.8-0.4,10-1.1,11.3-1.7c0.5-0.3,4.5-0.5,11-0.7c5.7-0.2,13.9-0.5,18.4-0.6c5.2-0.2,8.6-0.2,9.5,0
				c0.8,0.2,4,0.5,7.3,0.7c6.9,0.4,9.9,1,12.8,2.4c2.6,1.2,4.2,2.5,5.1,4.2c0.4,0.9,1,1.4,1.6,1.5c1.6,0.4,3.5,1.9,4.3,3.3
				c0.6,1.2,0.7,1.9,0.6,4.9l-0.1,3.5l-2.9,1.5c-6.8,3.4-16.7,4.7-41.4,5.3c-15.2,0.4-25.2,1.4-32.6,3.5
				C842.8,389.8,840.7,389.9,838.4,389.3z M745.3,420.4c-0.2-0.1-3.7-0.3-7.8-0.5c-11.1-0.5-11.3-0.6-12.1-1.9
				c-0.4-0.7-1.1-1.3-2-1.6c-3.8-1.2-6-3.7-9.3-10c-3.2-6.3-5.9-12.4-5.6-12.8c0.1-0.2,0.7-0.4,1.4-0.6c0.7-0.1,1.3-0.3,1.4-0.5
				c0.1-0.1-0.8-1-2.1-1.9c-1.2-0.9-2.7-2.1-3.2-2.8c-1-1.2-1-1.2-1.2-6.8c-1-25.6-0.6-34.7,2.1-44.3c0.7-2.6,0.8-3.4,0.5-4.2
				c-0.3-0.8-0.2-1.6,0.3-3.4c0.4-1.3,1.2-5.4,1.9-9.1c0.7-3.7,1.5-7.7,1.8-8.8c0.6-1.9,0.7-2.1,2.3-2.7c2-0.8,3-1.6,4.4-3.9
				c1.2-1.9,1.5-1.9,4.9-1.3c2.2,0.4,3.4,1.5,5.3,5.1c1.8,3.5,2.8,4.6,5,5.9c1.9,1.1,2,1.2,2.9,3.8c0.5,1.5,2,5.3,3.3,8.4
				c3.5,8.5,4,11.7,2.4,15.2c-1,2.3-2.3,7-3,10.9c-0.3,1.6-0.4,5.3-0.4,9.9c0,7.4,0.3,9.8,1.7,14.2c0.6,1.9,0.3,1.9,6,0.3
				c8.2-2.2,14.5-5.3,21-10.2c14.6-11,23.6-25.8,27.7-45.7c0.9-4.5,1.9-11.5,1.9-13.7c0-0.7,0.2-1.5,0.4-1.7c0.2-0.2,1-0.8,1.6-1.3
				c1.7-1.3,1.9-2.3,1.2-4.5c-0.6-1.8-0.6-2,0-3.8c0.8-2.5,3.2-5.1,5.9-6.5l2.1-1l2.3,1.5c2.6,1.7,7.5,6,9,7.9
				c0.8,1,1.1,1.8,1.4,3.9c0.5,3.9,1.2,6.1,3.5,12.3c2.4,6.3,2.7,7.4,3.1,10.5c0.3,2.1,0.2,2.6-0.7,5.8c-0.6,2-1.6,6.9-2.3,11
				l-1.2,7.4l-3.3,5.9c-1.8,3.2-4.3,7.9-5.6,10.5c-1.3,2.5-2.8,5.3-3.4,6.2c-0.6,0.9-1.7,2.7-2.4,4c-0.7,1.3-1.7,2.8-2.2,3.4
				l-0.9,0.9l-1.5-0.7c-0.8-0.4-1.6-0.6-1.7-0.5c-0.1,0.1-0.4,1.2-0.6,2.5l-0.4,2.3l-1.4,0.4c-0.8,0.2-1.7,0.5-1.9,0.6
				c-0.3,0.2-1.8,2.2-3.3,4.4c-3.6,5.4-5.7,8-9.1,11.2c-6.9,6.6-15.3,11.5-30.8,18c-4.6,1.9-6.2,2.5-7.5,2.4
				C746.4,420.5,745.5,420.5,745.3,420.4z M653.1,422c-10.4-0.9-21.1-3-32.8-6.4l-5.4-1.6l-2.6-2.7c-2.5-2.6-4.3-3.8-6.3-4.3
				c-1.2-0.3-6.4-5.3-8.1-8c-3.4-5.1-6.6-13.1-8-20.1c-1-5.2-1.4-8.7-1.6-15.8c-0.2-6.3-0.2-6.5,0.6-8.7c2.9-7.5,7.1-13.7,16.1-23.4
				c4-4.4,4.9-5.2,5.8-5.2c0.5,0,1-0.1,1-0.3c0-0.6,3.1-3.6,5.9-5.7c1.7-1.2,3.4-2.7,3.8-3.3c0.6-0.8,1.4-1.2,3.2-1.8
				c3.9-1.2,5.7-2.1,11.7-6.1c6-4,9.3-5.8,12.5-6.9c1-0.3,2.5-1.1,3.3-1.8c0.8-0.6,4-2.4,7.1-3.9c3.7-1.8,6.4-3.3,7.5-4.4l1.8-1.6
				l1,0.6c0.9,0.5,1.2,0.6,2.7,0.1c2.9-0.8,3.8-0.8,5.2-0.1c0.7,0.4,1.9,0.8,2.6,0.9c1.5,0.2,2.6,1.1,2.6,2c0,0.7,2.1,1.9,3.7,2.3
				c0.9,0.2,1.3,0.6,1.8,1.6c0.4,0.7,0.6,1.6,0.5,1.8c-0.1,0.3,0.3,0.7,1.4,1.1c2.3,0.9,5.1,3.7,5.9,6.1c2.3,6.2,0.4,12.5-5.3,18.2
				c-3.5,3.5-5.5,4.5-12.8,6.5c-14.8,4.1-21.6,7.2-27.4,12.7c-1.2,1.1-2.3,1.8-3.6,2.2c-5.4,1.7-10.8,5.3-18.8,12.7
				c-6.3,5.8-7.3,7.1-7.7,9.4c-0.2,1.2-0.7,2.4-1.7,3.8c-1.4,1.9-1.4,2-1,3.6c0.2,0.9,1,2.8,1.7,4.3l1.3,2.7l3.8,1
				c12.1,3.1,21.5,4,46,4.7l10.3,0.3l1.3,1.5c0.7,0.8,2.6,2.8,4.2,4.4c2.1,2.2,3.2,3.6,4.2,5.7c1.3,2.6,1.4,2.9,1.4,5.8v3l-2.3,2.2
				c-3.2,3-11.3,9.3-12.6,9.7c-0.6,0.2-3.3,0.2-6.1,0.1c-4.2-0.1-5.6-0.1-7.7,0.4C660.1,422.2,657.6,422.3,653.1,422z M384.8,423
				c-10.4-1.1-18.5-5.1-21-10.2c-0.5-1.1-1.5-2.3-2.1-2.9c-1.2-1-1.2-1-2-7c-0.5-3.3-1.1-7-1.4-8.2c-0.9-3.7-1.3-9.5-0.9-12.3
				c0.4-2.5,1-4.1,3.1-7.9c0.8-1.4,1.1-2.4,1.1-3.7c0-1.5,0.2-1.9,1.2-3c0.6-0.7,1.4-1.3,1.8-1.3c0.4-0.1,1-1.3,1.9-3.6
				c0.7-1.9,3.3-7.4,5.7-12.3l4.4-8.8l-1.3-1.5c-2.4-2.6-4.3-7.4-5.3-13.7c-0.3-1.8-0.8-4.9-1.1-6.8c-1-5.9-1.1-5.3,0.8-7.6
				c4.1-5,9.5-7.6,21.5-10c3.2-0.7,8.3-1.9,11.4-2.8c10.7-3.1,18.6-4.6,35.5-6.8c6-0.8,12.3-1.6,14-1.9c1.7-0.3,4-0.5,5-0.5
				c1,0,2-0.2,2-0.4c0.1-0.2,1.8,1,3.8,2.6c4.9,3.8,6.3,4.7,9.7,6.4l2.9,1.4l-0.1,4.5l-0.1,4.5l-1.9,2.6c-2.3,3.3-5.6,6.1-9.6,8
				c-4.1,2-7.6,3-15.6,4.3c-11.1,1.8-16.4,3.3-21.7,5.9c-2.2,1.1-2.9,1.3-4.2,1.1c-0.9-0.1-2.5,0.1-3.7,0.4
				c-1.2,0.3-2.9,0.6-3.8,0.6c-1.1,0-2,0.2-2.7,0.7c-0.6,0.4-1.9,0.9-2.8,1.1c-1.6,0.4-1.8,0.5-1.5,1c0.2,0.3,0.3,1.3,0.3,2.2
				c0,1.5,0,1.5,1.3,1.8c2.1,0.3,6,0.3,13.3-0.3c12.3-0.9,18.9-1.2,19.2-0.8c0.1,0.2,0.3,1,0.3,1.8c0,1.3,0.3,1.7,3.3,4.8
				c3.4,3.5,4.8,4.4,6.9,4.4c1.1,0,1.3,0.1,2,1.6c0.9,2,1.3,6.1,0.7,7.8c-0.3,1-1.3,1.8-6.6,5.3c-6.8,4.5-10.8,6.6-15.2,8
				c-3.4,1.1-8.6,1.7-11.4,1.5c-2.7-0.3-2.6-0.3-6.9,0c-5.5,0.3-5.5,0.3-9.9-0.1c-2.2-0.2-4.4-0.5-4.7-0.7c-0.6-0.3-0.9,0-2.7,3.2
				c-4.4,7.6-7.4,13.1-7.3,13.3c0.1,0.1,1.8,0.3,3.7,0.5c4,0.4,9.7,0.1,19.2-1.1c3.1-0.4,7.7-0.7,10.2-0.8c4-0.1,5-0.3,7-1
				c1.3-0.5,4.9-1.4,8-1.9c3.1-0.6,6.8-1.3,8.1-1.7l2.5-0.7l1.7,0.9c1.2,0.7,2.5,1.8,4.3,4.1c2.3,2.9,2.6,3.1,3.9,3.2
				c2.2,0.2,3.2,1.4,4,4.8c0.4,1.8,0.5,1.8,1.6,1.8c1.4,0,1.4,0.1-0.4,4c-3.2,6.9-6.9,10.8-13.6,14.1c-4.3,2.1-8.8,3.3-19.7,5.1
				c-9.5,1.6-10.6,1.7-12.5,1.4c-1.8-0.3-2.9-0.3-6.8,0.3C400.9,423.3,391.7,423.7,384.8,423z M242.7,423.9c-1-0.2-2.8-0.9-4.1-1.4
				c-1.9-0.8-2.3-1.1-2.3-1.8c0-0.9-1.6-2.4-4.2-3.9c-2-1.1-2.3-1.7-2.3-3.8c0-0.8,0.3-1.4,0.9-2c0.8-0.8,0.9-0.9,0.2-0.9
				c-1,0-2-1.3-2.8-3.6c-0.4-1.1-1-2.9-1.4-3.8c-0.5-1.1-0.6-1.9-0.4-2.3c0.2-0.3,0.5-1.3,0.8-2.3c0.3-1,0.8-2,1-2.2
				c0.3-0.2,0.5-0.7,0.5-0.9c0-0.3,0.4-1.7,0.9-3.2c0.7-2.1,0.8-3,0.6-3.7c-0.3-0.8,0-1.5,1.5-4.6c2.1-4,3-7.8,3.4-13.4
				c0.2-2.7,0.4-3.3,1.2-4.4c2.7-3.4,3.9-8.2,3.7-14.1c-0.2-4.5,0-5.5,1.3-5.8c0.5-0.1,0.9-0.3,0.9-0.4c0-0.1,0.2-1.3,0.4-2.6
				c0.2-1.3,0.7-6.4,1-11.3c1.2-15.9,2.8-24,6.1-30.6c1-2,3.6-4.8,5.3-5.9c1.5-1,5.6-2.6,6.5-2.6c0.5,0,0.9,0.7,1.6,3
				c1.3,3.8,3.3,7.1,9.1,14.8c2.5,3.4,5.2,7.2,6,8.5l1.4,2.3l-0.3,3.8c-0.4,5.7-1,9.5-2.1,15.3c-1,5-2.9,16-3.3,18.6
				c-0.2,1.1-0.1,1.3,0.5,1.4c0.4,0.1,0.7,0.4,0.7,0.7c0,0.3,0,0.6,0.1,0.6c0,0,1-0.3,2.2-0.7c1.2-0.4,4.8-1.2,8.1-1.9
				c9-1.9,13.3-2.9,17.3-4c4.1-1.2,9.6-3.3,9.9-3.8c0.1-0.2,0.5-2.2,0.8-4.6c0.3-2.3,1.1-6.6,1.6-9.4c0.7-4,0.9-6.4,1-10.6
				c0-3-0.1-5.9-0.2-6.6c-0.3-1.3,0.2-2.1,2.9-5c0.6-0.7,0.7-0.9,0.3-2.4c-0.6-2.4-0.2-9.5,0.7-12.6c1.9-6.8,5.5-10.8,10.8-12.5
				l2.5-0.8l0.6,0.8c1.4,1.9,3.4,5.6,5.2,9.5c4.5,10.3,7.6,15.6,10.3,17.7l1.4,1.1l0.4,6.4c0.2,3.5,0.6,9.5,0.7,13.3
				c0.3,6.9,0.3,7-0.7,11.6c-0.6,2.6-1.6,7.1-2.4,10.1c-1.5,5.9-2.2,9.4-2.8,13.9c-0.3,2.1-0.6,3.3-1.3,4.2
				c-0.5,0.7-1.8,3.5-2.9,6.3c-2,4.9-2.7,6.3-3.8,7.6c-0.7,0.8-0.6,6.9,0.2,8.3c0.7,1.3,0.6,5.7-0.1,8.4
				c-1.4,5.4-5.3,10.1-10.9,12.9c-1.9,1-9.5,3.6-10.3,3.6c-0.3,0-1.6-0.6-2.8-1.4c-1.2-0.8-3-1.8-3.9-2.1c-1.8-0.7-1.8-0.8-1.3-2.2
				c0.3-0.8,0.2-1.1-1.9-3.4c-3.9-4.2-5.6-7.8-5.9-12.4c-0.1-2,0.1-3.8,0.9-8.1c0.6-3,1.1-5.6,1.1-5.7c0-0.4-2.5,0.3-7.4,1.9
				c-7.9,2.7-13.5,5.2-21.6,9.6l-3.5,1.9l-0.8,2.3c-1.3,3.6-4,9.1-5.6,11.1c-0.8,1.1-1.5,2.4-1.6,3.1c-0.2,1.5-0.7,2.1-1.4,2.1
				c-0.3,0-2.8,1.1-5.6,2.4C249,424.4,246.6,424.9,242.7,423.9z M524.9,347.7c2.8-0.9,8.2-3,12.1-4.6l7.1-2.9l-0.1-1.1
				c-0.2-2.1-1.8-4.9-4.6-7.8c-1.5-1.5-3.2-3.1-3.7-3.4l-1-0.6l-0.8,1.3c-0.4,0.7-2.9,3.5-5.5,6.2c-5.4,5.5-7.4,8.2-9.4,12
				c-0.7,1.5-1.4,2.8-1.4,2.9C517.6,350,520,349.4,524.9,347.7z M565,427.7c-6.1-1.1-18-4.8-28.9-9c-13.2-5-20.4-9-26.8-14.6
				c-1.5-1.3-3.2-2.7-3.7-3.2l-1-0.8l-0.2,1.5c-0.9,5.9-3.2,11.5-6.7,16.3c-1.9,2.6-1.9,2.7-3.4,2.6c-1.2,0-1.7,0.2-3.1,1.2
				c-1.5,1.2-1.9,1.3-3.7,1.3c-1.7,0-2.2-0.2-3.8-1.2c-1.4-0.9-2.1-1.2-3.3-1.2c-1.5,0-1.6-0.1-2-1.3c-0.7-2.1-1.3-2.8-2.6-3.1
				l-1.2-0.2l0.2-1.8c0.2-1.3,0-2.5-0.5-4.3c-0.4-1.4-0.7-2.7-0.6-2.8c0-0.1-0.1-0.6-0.4-1.1c-0.3-0.5-0.9-2.1-1.4-3.7l-1-2.9h0.8
				c0.8,0,0.8-0.1,0.6-3c-0.1-2.7,0-3.6,1.5-9.3c1.5-5.6,1.6-6.5,1.4-8.8c-0.1-1.4-0.3-3-0.4-3.4c-0.2-0.8-0.2-0.8,0.7-0.6
				c0.9,0.2,0.9,0.2,1.1-1.7c0.1-1.1,0.2-2.8,0.1-3.9c-0.1-1.6,0-2.5,0.8-4.6c1.4-3.8,2.8-9.3,4.8-19.2c2.2-10.9,3.4-15.6,5.1-19.8
				l1.3-3.2l2.6,0c3,0,4.9,0.5,6.7,1.7l1.3,0.9l1.3-1.5c2.5-2.8,4.3-5.2,9.2-12c8-11.2,12.8-16.3,18-19.4c2.4-1.4,6.9-3,10.1-3.5
				l2.4-0.4l6.1,4.1c6.2,4.2,10,7.3,11.7,9.8c0.5,0.8,2.3,2.3,4,3.5c3,2.1,3.1,2.1,3.1,3.5c0,1.1,0.3,1.7,1.4,3
				c1.8,2.1,4.3,7.2,7.1,14.8c1.3,3.4,2.6,6.7,2.9,7.3c0.5,1,0.9,3.2,1.3,8.2c0.3,3.5-0.8,8.2-2.7,12.2c-1.1,2.3-2.1,3.5-4.6,6
				c-6.6,6.6-13.3,10-31.4,15.9c-5.1,1.6-9.5,3.2-9.8,3.5c-0.6,0.4-0.5,0.6,1.4,1.6c1.1,0.6,3.9,2.3,6.1,3.7c2.2,1.4,5.2,3,6.7,3.6
				c3.2,1.3,20.7,5.6,26.4,6.5c2.3,0.4,5.9,0.9,8.1,1.1c3.6,0.4,4.1,0.5,4.8,1.3c1.5,1.7,3.1,4.4,4.1,7c0.9,2.3,1,3.1,1,7.1
				c0,3.9,0.1,4.5,0.6,4.6c0.3,0.1,0.6,0.3,0.6,0.5c0,0.6-3.7,6.1-5.3,7.8c-1.8,2-2.1,2.1-6.2,3.1C573.9,428.3,569,428.5,565,427.7z
				"/>
			<path class="st6" d="M1238.8,476.9l17.6-58.9l-50.3-0.3l15.3-51.1h42.9l17.1-56.9l-42.7-0.6l12.9-43.1h45.9l17.8-59.2l-121.4-0.3
				l-81.3,271L1238.8,476.9z M1024.6,359.8l-5.8,117.7h66.1l81.2-270.6c-21.3-0.6-42.7-0.6-64-0.6c-11.8,39.3-23.6,78.6-35.4,117.9
				l2.4-117.9l-63.2,0.2l-81.3,271h64.3L1024.6,359.8z M1350.5,482.2c22.4-2.9,40.9-10.1,56.5-21.8c11.8-8.9,20.4-22.8,28.1-45.4
				c6.1-17.9,9.6-34.4,10.1-47.3c0.6-16.8-3.4-25.9-17.9-40.4c-7.7-7.7-13.6-12.6-27.6-23.1c-9.1-6.8-13.8-11.1-15.1-13.8
				c-2-4.2-1-13.6,2.5-23.9c2.1-6.3,5.2-11,8.4-12.8c3.3-1.9,7.1-2,9-0.1c1,1,1,1.1,0.8,3.9c-0.3,3.5-1,6.2-5.8,22.3
				c-2.1,7.1-3.8,13-3.8,13.1c0,0.1,15.9,0.2,35.3,0.1l35.3-0.1l1.5-5c7.1-23.7,9.5-34.1,10.3-46.1c0.2-2.9-0.3-8.6-1-11.3
				c-3.6-13.5-20.2-24.4-42.7-28.1c-7.1-1.1-11-1.4-21-1.4c-7.4,0-11.5,0.2-15,0.6c-32.7,4-56.8,17.7-70.5,39.8
				c-8.8,14.1-17.6,39.6-20.3,58.3c-0.6,4.4-0.6,14.4,0.2,18.6c1.3,7.6,3.7,13.7,7.2,18.3c3.7,4.9,12.5,13.1,27,25.2
				c13.4,11.2,20.4,17.7,24.6,22.7l2,2.4l0,3.8c0,4.6-1.1,9.9-3.8,19.3c-3,10.3-5.3,15.1-8.9,18.5c-2.5,2.4-4.4,3.1-7.8,3.1
				c-3.1,0-4.4-0.5-5.5-2c-1.7-2.3-0.8-6.7,7.2-33.3l6-20h-70.6l-0.4,1.1c-1.9,6.1-8,26.8-9.1,31.1c-3.2,12.6-4.6,21.9-4.6,30.5
				c0,8,0.8,12.1,3.5,17.5c4.7,9.4,15.7,17.8,28.7,22c5,1.6,13,3.3,18.4,3.8c2.1,0.2,4.4,0.4,5,0.5
				C1329.6,483.1,1346.6,482.7,1350.5,482.2z"/>
		</g>
	</g>
	<g>
		<g>
			<circle class="st0" cx="417.7" cy="1070.7" r="18"/>
			<circle class="st1" cx="417.7" cy="1070.7" r="18"/>
			<circle class="st0" cx="489.7" cy="1070.7" r="18"/>
			<circle class="st1" cx="489.7" cy="1070.7" r="18"/>
			<circle class="st0" cx="561.7" cy="1070.7" r="18"/>
			<circle class="st1" cx="561.7" cy="1070.7" r="18"/>
			<circle class="st0" cx="633.7" cy="1070.7" r="18"/>
			<circle class="st1" cx="633.7" cy="1070.7" r="18"/>
			<circle class="st0" cx="705.7" cy="1070.7" r="18"/>
			<circle class="st1" cx="705.7" cy="1070.7" r="18"/>
			<circle class="st0" cx="777.7" cy="1070.7" r="18"/>
			<circle class="st1" cx="777.7" cy="1070.7" r="18"/>
			<circle class="st0" cx="849.7" cy="1070.7" r="18"/>
			<circle class="st1" cx="849.7" cy="1070.7" r="18"/>
			<circle class="st0" cx="921.7" cy="1070.7" r="18"/>
			<circle class="st1" cx="921.7" cy="1070.7" r="18"/>
			<circle class="st0" cx="993.7" cy="1070.7" r="18"/>
			<circle class="st1" cx="993.7" cy="1070.7" r="18"/>
			<circle class="st0" cx="1065.7" cy="1070.7" r="18"/>
			<circle class="st1" cx="1065.7" cy="1070.7" r="18"/>
			<circle class="st0" cx="1137.7" cy="1070.7" r="18"/>
			<circle class="st1" cx="1137.7" cy="1070.7" r="18"/>
			<circle class="st0" cx="1209.7" cy="1070.7" r="18"/>
			<circle class="st1" cx="1209.7" cy="1070.7" r="18"/>
			<circle class="st0" cx="1281.7" cy="1070.7" r="18"/>
			<circle class="st1" cx="1281.7" cy="1070.7" r="18"/>
			
				<ellipse transform="matrix(0.1602 -0.9871 0.9871 0.1602 -357.8326 1015.127)" class="st0" cx="417.7" cy="717.9" rx="18" ry="18"/>
			
				<ellipse transform="matrix(0.1602 -0.9871 0.9871 0.1602 -357.8326 1015.127)" class="st1" cx="417.7" cy="717.9" rx="18" ry="18"/>
			
				<ellipse transform="matrix(0.1602 -0.9871 0.9871 0.1602 -297.3658 1086.1973)" class="st0" cx="489.7" cy="717.9" rx="18" ry="18"/>
			
				<ellipse transform="matrix(0.1602 -0.9871 0.9871 0.1602 -297.3658 1086.1973)" class="st1" cx="489.7" cy="717.9" rx="18" ry="18"/>
			
				<ellipse transform="matrix(0.1602 -0.9871 0.9871 0.1602 -236.899 1157.2676)" class="st0" cx="561.7" cy="717.9" rx="18" ry="18"/>
			
				<ellipse transform="matrix(0.1602 -0.9871 0.9871 0.1602 -236.899 1157.2676)" class="st1" cx="561.7" cy="717.9" rx="18" ry="18"/>
			
				<ellipse transform="matrix(0.1602 -0.9871 0.9871 0.1602 -176.4321 1228.3378)" class="st0" cx="633.7" cy="717.9" rx="18" ry="18"/>
			
				<ellipse transform="matrix(0.1602 -0.9871 0.9871 0.1602 -176.4321 1228.3378)" class="st1" cx="633.7" cy="717.9" rx="18" ry="18"/>
			
				<ellipse transform="matrix(0.1602 -0.9871 0.9871 0.1602 -115.9653 1299.4081)" class="st0" cx="705.7" cy="717.9" rx="18" ry="18"/>
			
				<ellipse transform="matrix(0.1602 -0.9871 0.9871 0.1602 -115.9653 1299.4081)" class="st1" cx="705.7" cy="717.9" rx="18" ry="18"/>
			
				<ellipse transform="matrix(0.1602 -0.9871 0.9871 0.1602 -55.4984 1370.4784)" class="st0" cx="777.7" cy="717.9" rx="18" ry="18"/>
			
				<ellipse transform="matrix(0.1602 -0.9871 0.9871 0.1602 -55.4984 1370.4784)" class="st1" cx="777.7" cy="717.9" rx="18" ry="18"/>
			
				<ellipse transform="matrix(0.1602 -0.9871 0.9871 0.1602 4.9684 1441.5487)" class="st0" cx="849.7" cy="717.9" rx="18" ry="18"/>
			
				<ellipse transform="matrix(0.1602 -0.9871 0.9871 0.1602 4.9684 1441.5487)" class="st1" cx="849.7" cy="717.9" rx="18" ry="18"/>
			
				<ellipse transform="matrix(0.1602 -0.9871 0.9871 0.1602 65.4352 1512.619)" class="st0" cx="921.7" cy="717.9" rx="18" ry="18"/>
			
				<ellipse transform="matrix(0.1602 -0.9871 0.9871 0.1602 65.4352 1512.619)" class="st1" cx="921.7" cy="717.9" rx="18" ry="18"/>
			
				<ellipse transform="matrix(0.1602 -0.9871 0.9871 0.1602 125.9021 1583.6893)" class="st0" cx="993.7" cy="717.9" rx="18" ry="18"/>
			
				<ellipse transform="matrix(0.1602 -0.9871 0.9871 0.1602 125.9021 1583.6893)" class="st1" cx="993.7" cy="717.9" rx="18" ry="18"/>
			
				<ellipse transform="matrix(0.1602 -0.9871 0.9871 0.1602 186.3689 1654.7595)" class="st0" cx="1065.7" cy="717.9" rx="18" ry="18"/>
			
				<ellipse transform="matrix(0.1602 -0.9871 0.9871 0.1602 186.3689 1654.7595)" class="st1" cx="1065.7" cy="717.9" rx="18" ry="18"/>
			
				<ellipse transform="matrix(0.1602 -0.9871 0.9871 0.1602 246.8358 1725.8298)" class="st0" cx="1137.7" cy="717.9" rx="18" ry="18"/>
			
				<ellipse transform="matrix(0.1602 -0.9871 0.9871 0.1602 246.8358 1725.8298)" class="st1" cx="1137.7" cy="717.9" rx="18" ry="18"/>
			
				<ellipse transform="matrix(0.1602 -0.9871 0.9871 0.1602 307.3026 1796.9001)" class="st0" cx="1209.7" cy="717.9" rx="18" ry="18"/>
			
				<ellipse transform="matrix(0.1602 -0.9871 0.9871 0.1602 307.3026 1796.9001)" class="st1" cx="1209.7" cy="717.9" rx="18" ry="18"/>
			
				<ellipse transform="matrix(0.1602 -0.9871 0.9871 0.1602 367.7695 1867.9705)" class="st0" cx="1281.7" cy="717.9" rx="18" ry="18"/>
			
				<ellipse transform="matrix(0.1602 -0.9871 0.9871 0.1602 367.7695 1867.9705)" class="st1" cx="1281.7" cy="717.9" rx="18" ry="18"/>
			<rect x="372.7" y="732.2" class="st2" width="959.1" height="324"/>
			<rect x="390.7" y="714.2" class="st3" width="54" height="18"/>
			<rect x="462.7" y="714.2" class="st3" width="54" height="18"/>
			<rect x="534.7" y="714.2" class="st3" width="54" height="18"/>
			<rect x="606.7" y="714.2" class="st3" width="54" height="18"/>
			<rect x="678.7" y="714.2" class="st3" width="54" height="18"/>
			<rect x="750.7" y="714.2" class="st3" width="54" height="18"/>
			<rect x="822.7" y="714.2" class="st3" width="54" height="18"/>
			<rect x="894.7" y="714.2" class="st3" width="54" height="18"/>
			<rect x="966.7" y="714.2" class="st3" width="54" height="18"/>
			<rect x="1038.7" y="714.2" class="st3" width="54" height="18"/>
			<rect x="1110.7" y="714.2" class="st3" width="54" height="18"/>
			<rect x="1182.7" y="714.2" class="st3" width="54" height="18"/>
			<rect x="1254.7" y="714.2" class="st3" width="54" height="18"/>
			<rect x="390.7" y="1056.2" class="st3" width="54" height="18"/>
			<rect x="462.7" y="1056.2" class="st3" width="54" height="18"/>
			<rect x="534.7" y="1056.2" class="st3" width="54" height="18"/>
			<rect x="606.7" y="1056.2" class="st3" width="54" height="18"/>
			<rect x="678.7" y="1056.2" class="st3" width="54" height="18"/>
			<rect x="750.7" y="1056.2" class="st3" width="54" height="18"/>
			<rect x="822.7" y="1056.2" class="st3" width="54" height="18"/>
			<rect x="894.7" y="1056.2" class="st3" width="54" height="18"/>
			<rect x="966.7" y="1056.2" class="st3" width="54" height="18"/>
			<rect x="1038.7" y="1056.2" class="st3" width="54" height="18"/>
			<rect x="1110.7" y="1056.2" class="st3" width="54" height="18"/>
			<rect x="1182.7" y="1056.2" class="st3" width="54" height="18"/>
			<rect x="1254.7" y="1056.2" class="st3" width="54" height="18"/>
			<path class="st4" d="M1331.7,840.2c-29.8,0-54,24.2-54,54c0,29.8,24.2,54,54,54"/>
			<path class="st5" d="M1331.7,840.2c-29.8,0-54,24.2-54,54c0,29.8,24.2,54,54,54"/>
			
				<ellipse transform="matrix(0.9239 -0.3827 0.3827 0.9239 -352.1987 234.4206)" class="st4" cx="413.2" cy="1002.5" rx="18" ry="18"/>
			
				<ellipse transform="matrix(0.9239 -0.3827 0.3827 0.9239 -352.1987 234.4206)" class="st5" cx="413.2" cy="1002.5" rx="18" ry="18"/>
		</g>
		<g>
			<g>
				<g>
					<path class="st7" d="M467.7,826.6H501l46.1,73.3l0-73.3h33v105.2h-33l-46.3-73.3v73.3h-33.1L467.7,826.6z M759.7,837.4h32.2
						v14.2h17.4v10.4h-17.4l0,69.8h-32.2l0-69.8h-17.5v-10.4h17.5L759.7,837.4z M598.5,861.8h32.1v69.9h-32.1V861.8z M598.4,826.5
						h32.2V848h-32.2V826.5z M1174.6,896.2c0,0,0,10.6,0,14.8c0,11.1-6.7,15.8-13.1,15.8c-6.4,0-13.2-4.6-13.2-15.8
						c0-4.3,0-15.1,0-15.1s0-10.3,0-14.6c0-11.1,6.7-15.7,13.1-15.7c6.4,0,13.1,4.6,13.1,15.7
						C1174.6,885.6,1174.6,893.4,1174.6,896.2L1174.6,896.2L1174.6,896.2z M1161.7,857c-25.9,0-46.9,17.6-46.9,39.3
						c0,21.7,21,39.3,46.9,39.3c26,0,47-17.6,47-39.3C1208.7,874.6,1187.6,857,1161.7,857L1161.7,857z M1072.5,826.6h31.7v105.2
						h-31.8l0-4c-12.3,7.6-26.2,7.6-37,2.6c-2.9-1.3-22-10.3-22-34.7c0-18.5,17.7-38.6,40.9-36.6c7.6,0.7,13,3.4,18.2,6.2
						L1072.5,826.6z M1072.8,896.4v-12.5c0-10.8-7.6-13.6-12.6-13.6c-5.1,0-12.6,2.8-12.6,13.6c0,3.6,0,12.5,0,12.5s0,8.7,0,12.4
						c0,10.8,7.5,13.6,12.6,13.6c5,0,12.6-2.8,12.6-13.6V896.4z M705.9,858.6c12-0.3,36.4,7.4,36.2,35.1c0,4.9,0,38,0,38h-31.9
						v-45.9c0-6.1-5.9-12.9-14.7-12.9c-8.8,0-15.3,6.8-15.3,12.9l0,45.9h-31.9l0-69.9l31.9,0c0,0,0,5.6,0,7.3
						C687.2,862.6,696.3,858.9,705.9,858.6L705.9,858.6z M967.1,858.6c12-0.3,36.4,7.4,36.2,35.1c0,4.9,0,38,0,38h-31.9v-45.9
						c0-6.1-5.9-12.9-14.7-12.9s-15.3,6.8-15.3,12.9l0,45.9h-31.9l0-69.9l31.9,0c0,0,0,5.6,0,7.3
						C948.4,862.6,957.5,858.9,967.1,858.6L967.1,858.6z M839.2,886.2c-0.1-6.1,0.1-10.2,2.1-13.7c2.5-4.3,7.1-6.4,11.3-6.4h0
						c4.2,0,8.8,2.1,11.3,6.4c2,3.5,2.2,7.6,2.1,13.7H839.2L839.2,886.2z M865.9,907.3c0,0,0,0.3,0,4.3c0,12.8-8.6,15.6-13.3,15.6
						c-4.8,0-13.5-2.9-13.5-15.6c0-3.8,0-14.4,0-14.4s60.5,0,60.5,0c0-21.7-21.3-39.7-47.4-39.7c-26.1,0-47.3,17.6-47.3,39.3
						c0,21.7,21.2,39.3,47.3,39.3c21.7,0,40-12.2,45.6-28.7L865.9,907.3L865.9,907.3z M1210.9,851.6h-3.7v-24h9.3
						c5.7,0,8.6,2.1,8.6,6.8c0,4.3-2.7,6.1-6.3,6.6l6.9,10.5h-4.1l-6.4-10.4h-4.2L1210.9,851.6L1210.9,851.6z M1215.3,838.1
						c3.1,0,5.9-0.2,5.9-3.9c0-3-2.7-3.5-5.3-3.5h-5v7.4H1215.3z"/>
					<path class="st7" d="M1193.9,839.6c0-11.9,9.8-20.7,21.4-20.7c11.5,0,21.3,8.8,21.3,20.7c0,12-9.8,20.8-21.3,20.8
						C1203.7,860.4,1193.9,851.6,1193.9,839.6z M1215.3,856.9c9.6,0,17.1-7.4,17.1-17.4c0-9.8-7.5-17.2-17.1-17.2
						c-9.6,0-17.2,7.4-17.2,17.2C1198.2,849.6,1205.7,856.9,1215.3,856.9z"/>
				</g>
				<g>
					<g>
						<path class="st7" d="M532.7,940.4h-28.2v28.2h8.8v-18.8c0-1.2,1-2.2,2.1-2.2h15.2c1.2,0,2.1,1,2.1,2.2v18.8h8.8v-18.8
							C541.5,949.8,542.7,940.4,532.7,940.4"/>
						<path class="st7" d="M776.6,940.4h-28.2v28.2h8.9v-18.8c0-1.2,1-2.2,2-2.2h15.2c1.2,0,2.1,1,2.1,2.2v18.8h8.8v-18.8
							C785.3,949.8,786.5,940.4,776.6,940.4"/>
						<path class="st7" d="M909.5,940.4h-28.2v28.2h8.8v-18.8c0-1.2,1-2.2,2.1-2.2h15.2c1.2,0,2.1,1,2.1,2.2v18.8h8.8v-18.8
							C918.3,949.8,919.4,940.4,909.5,940.4"/>
						<path class="st7" d="M545.4,947.5h9.7c1,0,2.1,1,2.1,2.2v18.8h9.3v-18.8c0-1.2,1-2.2,2.1-2.2h9.7v-7.2h-33.1L545.4,947.5
							L545.4,947.5z"/>
						<path class="st7" d="M922,940.4v7.2h9.7c1.2,0,2.1,1,2.1,2.2v18.8h9.7v-18.8c0-1.2,0.8-2.2,2-2.2h9.7v-7.2H922z"/>
						<path class="st7" d="M656.5,947.5h9.7c1.2,0,2.1,1,2.1,2.2v18.8h9.7v-18.8c0-1.2,1-2.2,2.1-2.2h9.7v-7.2h-33.5L656.5,947.5
							L656.5,947.5z"/>
						<rect x="733.2" y="940.4" class="st7" width="9.3" height="28.2"/>
						<path class="st7" d="M718,940.4h-15.3c-10,0-9.2,9.3-9.2,9.3v1.2v17.6h8.9v-7.2h15.7v7.2h8.9V951v-1.2
							C727.2,949.8,728.3,940.4,718,940.4 M718.2,954.3h-15.7v-3.4v-1.6c0-0.8,1.2-1.8,1.7-1.8h11.9c1.3,0,2.1,1,2.1,1.8v1.6V954.3z
							"/>
						<path class="st7" d="M643.9,940.4H619v10.3v17.9h9.2v-5.4c0-1.2,0.8-1.8,2-1.8h12.3c0.6,0,1.7,1,1.7,1.8v5.4h8.8v-4.4
							c0,0,0.8-4-3.3-6.8c2.7-2,3.7-5,3.9-6.8c0.2-0.8,0.2-1.4,0.2-1.4S653.6,940.4,643.9,940.4 M644.1,952.1c0,1.4-0.6,2.2-1.7,2.2
							h-12.9c-0.6,0-1.3-0.8-1.3-2.2v-1.4v-1.4c0-1.2,0.8-2.2,2-2.2h12.3c1.2,0,1.7,0.6,1.7,2.2v1.4V952.1z"/>
						<path class="st7" d="M467.8,959.3c0,0-1,9.3,9.2,9.3h21.8v-7.2h-20.2c-1.3,0-2.5-1.2-2.5-2.4c0-1.4,1-2.2,2.5-2.2h19.1v-4.9
							h-19.5c-1.2,0-2.1-1-2.1-2.2s1-2.2,2.1-2.2h20.6v-7.2h-30.9L467.8,959.3L467.8,959.3z"/>
						<path class="st7" d="M582.6,959.3c0,0-1.3,9.3,8.8,9.3h21.8v-7.2h-20.2c-1.4,0-2.5-1.2-2.5-2.4c0-1.4,1.2-2.2,2.5-2.2H612
							v-4.9h-19.1c-1.4,0-2.5-1-2.5-2.2s1.2-2.2,2.5-2.2h20.2v-7.2h-30.6V959.3L582.6,959.3z"/>
						<path class="st7" d="M844.9,959.3c0,0-1,9.3,8.9,9.3h22v-7.2h-20.5c-1.2,0-2.4-1.2-2.4-2.4c0-1.4,0.8-2.2,2.1-2.2h19.1v-4.9
							h-19.1c-1.3,0-2.1-1-2.1-2.2s0.8-2.2,2.1-2.2h20.6v-7.2h-30.9L844.9,959.3L844.9,959.3z"/>
						<path class="st7" d="M830.4,940.5h-39.1v28.1h8.2v-18.8c0-1.2,1-2.2,2.1-2.2h6.6c1.2,0,2.1,1,2.1,2.2v18.8h9.2v-18.8
							c0-1.2,0.8-2.2,2.1-2.2h7c0.8,0,1.7,1,1.7,2.2l0.4,18.8h8.8v-18.8C839.5,949.8,840.7,940.5,830.4,940.5"/>
					</g>
					<g>
						<path class="st7" d="M1092.9,947.7h10c0.8,0,1.8,1,1.8,2.2v18.9h9.8l0.4-18.9c0-1.2,0.6-2.2,1.8-2.2h9.8v-7.1h-33.4V947.7z"/>
						<path class="st7" d="M1205.9,940.5h-39.3v28.2h8.2v-18.9c0-1.2,1-2.2,2.1-2.2h6.7c1.2,0,2.1,1,2.1,2.2v18.9h9.2v-18.9
							c0-1.2,0.8-2.2,2.1-2.2h7c0.8,0,1.8,1,1.8,2.2l0.4,18.9h8.8v-18.9C1215,949.9,1216.2,940.5,1205.9,940.5"/>
						<path class="st7" d="M1052.7,940.5h-8.4v10.5c0,1.2-1.2,2.2-2.1,2.2h-12.5c-1.2,0-2.1-1-2.1-2.2v-10.5h-8.8v10.4
							c0,0-1,9.5,9.2,9.5h2.9v8.3h9.8v-8.3h3.3c10.2,0,8.8-9.4,8.8-9.4V940.5z"/>
						<path class="st7" d="M1130,959.5c0,0-1.4,9.4,8.8,9.4h21.9v-7.2h-20.3c-1.4,0-2.5-1-2.5-2.4c0-1.4,1.2-2,2.5-2h19.1v-4.9
							h-19.1c-1.4,0-2.5-1.2-2.5-2.4c0-1.2,1.2-2.2,2.5-2.2h20.3v-7.1H1130V959.5z"/>
						<path class="st7" d="M1080.8,952.1h-13.1c-1.6,0-2.5-0.6-2.5-2c0-1.2,1-2.4,2.1-2.4h22.3v-7.1h-24.4c-4.5,0-8.4,3.8-8.4,8.2
							c0,6.2,3.9,8.6,9.2,8.6h13.1c1.4,0,2.8,0.6,2.8,2c0,1.2-1,2.4-2.1,2.4h-22.9v7.2h25c4.1,0,8.4-3.4,8.4-8.2
							C1090.1,954.9,1085.7,952.1,1080.8,952.1"/>
						<path class="st7" d="M1006.4,952.1h-12.7c-1.5,0-2.7-0.6-2.7-2c0-1.2,1.2-2.4,2.4-2.4h22.3v-7.1h-24.5c-4.9,0-8.8,3.8-8.8,8.2
							c0,6.2,4.3,8.6,9.6,8.6h12.7c1.6,0,2.7,0.6,2.7,2c0,1.2-1.2,2.4-2.4,2.4h-22.6v7.2h25c4.5,0,8.6-3.4,8.6-8.2
							C1015.9,954.9,1011.6,952.1,1006.4,952.1"/>
						<polygon class="st7" points="1226.2,940.5 1226.2,941.7 1223,941.7 1223,950.4 1221.6,950.4 1221.6,941.7 1218.4,941.7 
							1218.4,940.5 						"/>
						<path class="st7" d="M1227.4,940.5h1.9l2.8,8.3l2.8-8.3h1.9v9.8h-1.2v-5.8c0-0.2,0-0.5,0-1s0-1,0-1.5l-2.8,8.3h-1.3l-2.8-8.3
							v0.3c0,0.2,0,0.6,0,1.1c0,0.5,0,0.9,0,1.1v5.8h-1.2L1227.4,940.5L1227.4,940.5z"/>
					</g>
				</g>
			</g>
			<g>
				<path class="st7" d="M504.1,816.5h-9l-2.6-8.1h-13l-2.6,8.1H468l13.3-36.6h9.8L504.1,816.5z M490.6,802l-3.9-12.3
					c-0.3-0.9-0.5-2-0.6-3.3h-0.2c-0.1,1.1-0.3,2.1-0.6,3.2l-4,12.4H490.6z"/>
				<path class="st7" d="M533.1,816.5h-8V802c0-4-1.4-6.1-4.3-6.1c-1.4,0-2.5,0.5-3.4,1.6c-0.9,1.1-1.4,2.4-1.4,4.1v14.9h-8.1v-26.1
					h8.1v4.1h0.1c1.9-3.2,4.7-4.8,8.4-4.8c5.8,0,8.7,3.6,8.7,10.8V816.5z"/>
				<path class="st7" d="M575.8,786.6h-12.9v9h11.9v6.7h-11.9v14.2h-8.2v-36.6h21.1V786.6z"/>
				<path class="st7" d="M590,803.9v12.6h-8.2v-36.6h12.9c9.2,0,13.8,3.9,13.8,11.7c0,3.7-1.3,6.6-4,8.9c-2.6,2.3-6.2,3.4-10.6,3.4
					H590z M590,786.2v11.4h3.2c4.4,0,6.6-1.9,6.6-5.8c0-3.8-2.2-5.6-6.6-5.6H590z"/>
				<path class="st7" d="M644.1,814c-3.6,2.1-8,3.1-13.3,3.1c-5.9,0-10.5-1.6-13.9-4.9s-5.1-7.7-5.1-13.5c0-5.7,1.9-10.4,5.6-14.1
					s8.6-5.4,14.8-5.4c3.9,0,7.3,0.5,10.3,1.6v7.7c-2.8-1.6-6.3-2.4-10.4-2.4c-3.4,0-6.2,1.1-8.4,3.3c-2.2,2.2-3.2,5.2-3.2,8.9
					c0,3.8,1,6.7,2.9,8.7c1.9,2.1,4.5,3.1,7.8,3.1c2,0,3.5-0.3,4.7-0.8v-7.1h-7.3v-6.6h15.6V814z"/>
				<path class="st7" d="M683.4,816.5h-9l-2.6-8.1h-13l-2.6,8.1h-8.9l13.3-36.6h9.8L683.4,816.5z M670,802l-3.9-12.3
					c-0.3-0.9-0.5-2-0.6-3.3h-0.2c-0.1,1.1-0.3,2.1-0.6,3.2l-4,12.4H670z"/>
				<path class="st7" d="M710.6,816.5h-8.2v-36.6h8.2V816.5z"/>
				<path class="st7" d="M743.4,816.5h-8V802c0-4-1.4-6.1-4.3-6.1c-1.4,0-2.5,0.5-3.4,1.6c-0.9,1.1-1.4,2.4-1.4,4.1v14.9h-8.1v-26.1
					h8.1v4.1h0.1c1.9-3.2,4.7-4.8,8.4-4.8c5.8,0,8.7,3.6,8.7,10.8V816.5z"/>
				<path class="st7" d="M757.9,813.5h-0.1v15h-8.1v-38.1h8.1v3.9h0.1c2-3,4.8-4.6,8.4-4.6c3.4,0,6,1.2,7.8,3.5
					c1.8,2.3,2.8,5.5,2.8,9.5c0,4.4-1.1,7.8-3.2,10.5c-2.2,2.6-5,4-8.6,4C762,817.1,759.6,815.9,757.9,813.5z M757.7,802.7v2.1
					c0,1.8,0.5,3.3,1.4,4.4c1,1.1,2.2,1.7,3.7,1.7c1.8,0,3.3-0.7,4.3-2.1c1-1.4,1.5-3.4,1.5-6c0-4.6-1.8-6.9-5.4-6.9
					c-1.6,0-3,0.6-4,1.9C758.2,799,757.7,800.7,757.7,802.7z"/>
				<path class="st7" d="M790.2,816.5h-8.1v-38.7h8.1V816.5z"/>
				<path class="st7" d="M820.4,805.7h-17c0.3,3.8,2.7,5.7,7.2,5.7c2.9,0,5.4-0.7,7.6-2v5.8c-2.4,1.3-5.6,1.9-9.4,1.9
					c-4.2,0-7.5-1.2-9.8-3.5c-2.3-2.3-3.5-5.6-3.5-9.8c0-4.3,1.3-7.8,3.8-10.3c2.5-2.5,5.6-3.8,9.3-3.8c3.8,0,6.8,1.1,8.8,3.4
					c2.1,2.3,3.1,5.3,3.1,9.2V805.7z M813,800.8c0-3.7-1.5-5.6-4.5-5.6c-1.3,0-2.4,0.5-3.4,1.6c-0.9,1.1-1.5,2.4-1.7,4H813z"/>
				<path class="st7" d="M866.7,816.5h-8v-14.9c0-3.8-1.4-5.7-4.2-5.7c-1.3,0-2.4,0.6-3.2,1.7c-0.8,1.1-1.2,2.6-1.2,4.3v14.6h-8.1
					v-15c0-3.7-1.4-5.5-4.1-5.5c-1.4,0-2.5,0.5-3.3,1.6c-0.8,1.1-1.2,2.6-1.2,4.4v14.5h-8.1v-26.1h8.1v4.1h0.1
					c0.8-1.4,2-2.5,3.5-3.4c1.5-0.9,3.1-1.3,4.9-1.3c3.7,0,6.2,1.6,7.6,4.9c2-3.2,4.9-4.9,8.8-4.9c5.7,0,8.5,3.5,8.5,10.5V816.5z"/>
				<path class="st7" d="M896.5,805.7h-17c0.3,3.8,2.7,5.7,7.2,5.7c2.9,0,5.4-0.7,7.6-2v5.8c-2.4,1.3-5.6,1.9-9.4,1.9
					c-4.2,0-7.5-1.2-9.8-3.5s-3.5-5.6-3.5-9.8c0-4.3,1.3-7.8,3.8-10.3c2.5-2.5,5.6-3.8,9.3-3.8c3.8,0,6.8,1.1,8.8,3.4
					c2.1,2.3,3.1,5.3,3.1,9.2V805.7z M889.1,800.8c0-3.7-1.5-5.6-4.5-5.6c-1.3,0-2.4,0.5-3.4,1.6c-0.9,1.1-1.5,2.4-1.7,4H889.1z"/>
				<path class="st7" d="M926.6,816.5h-8V802c0-4-1.4-6.1-4.3-6.1c-1.4,0-2.5,0.5-3.4,1.6s-1.4,2.4-1.4,4.1v14.9h-8.1v-26.1h8.1v4.1
					h0.1c1.9-3.2,4.7-4.8,8.4-4.8c5.8,0,8.7,3.6,8.7,10.8V816.5z"/>
				<path class="st7" d="M948.7,816.2c-1.2,0.6-3,0.9-5.4,0.9c-5.7,0-8.5-3-8.5-8.8v-12h-4.2v-5.9h4.2v-5.6l8-2.3v7.9h5.9v5.9h-5.9
					v10.6c0,2.7,1.1,4.1,3.2,4.1c0.8,0,1.7-0.2,2.6-0.7V816.2z"/>
				<path class="st7" d="M975,816.5h-7.6v-3.7h-0.1c-1.8,2.9-4.3,4.4-7.8,4.4c-2.5,0-4.5-0.7-6-2.2c-1.5-1.4-2.2-3.4-2.2-5.8
					c0-5.1,3-8,9-8.8l7.1-0.9c0-2.9-1.5-4.3-4.6-4.3c-3.1,0-6.1,0.9-8.9,2.8v-6.1c1.1-0.6,2.7-1.1,4.6-1.5c1.9-0.4,3.7-0.7,5.3-0.7
					c7.4,0,11.2,3.7,11.2,11.1V816.5z M967.4,805.9v-1.8l-4.7,0.6c-2.6,0.3-3.9,1.5-3.9,3.5c0,0.9,0.3,1.7,1,2.3
					c0.6,0.6,1.5,0.9,2.6,0.9c1.5,0,2.7-0.5,3.7-1.6C966.9,808.8,967.4,807.5,967.4,805.9z"/>
				<path class="st7" d="M997.1,816.2c-1.2,0.6-3,0.9-5.4,0.9c-5.7,0-8.5-3-8.5-8.8v-12H979v-5.9h4.2v-5.6l8-2.3v7.9h5.9v5.9h-5.9
					v10.6c0,2.7,1.1,4.1,3.2,4.1c0.8,0,1.7-0.2,2.6-0.7V816.2z"/>
				<path class="st7" d="M1005.8,786.2c-1.4,0-2.5-0.4-3.3-1.2c-0.9-0.8-1.3-1.8-1.3-3c0-1.2,0.4-2.2,1.3-3c0.9-0.8,2-1.1,3.3-1.1
					c1.4,0,2.5,0.4,3.4,1.1s1.3,1.8,1.3,3c0,1.2-0.4,2.2-1.3,3S1007.1,786.2,1005.8,786.2z M1009.7,816.5h-8.1v-26.1h8.1V816.5z"/>
				<path class="st7" d="M1029,817.1c-4.4,0-7.8-1.2-10.3-3.7c-2.5-2.4-3.7-5.8-3.7-9.9c0-4.3,1.3-7.7,3.9-10.1
					c2.6-2.4,6.1-3.7,10.5-3.7c4.3,0,7.7,1.2,10.2,3.7c2.5,2.4,3.7,5.7,3.7,9.7c0,4.3-1.3,7.8-3.8,10.3
					C1036.9,815.9,1033.4,817.1,1029,817.1z M1029.2,795.9c-1.9,0-3.4,0.7-4.4,2c-1.1,1.3-1.6,3.2-1.6,5.6c0,5,2,7.5,6.1,7.5
					c3.9,0,5.8-2.6,5.8-7.7C1035,798.4,1033.1,795.9,1029.2,795.9z"/>
				<path class="st7" d="M1073.7,816.5h-8V802c0-4-1.4-6.1-4.3-6.1c-1.4,0-2.5,0.5-3.4,1.6s-1.4,2.4-1.4,4.1v14.9h-8.1v-26.1h8.1
					v4.1h0.1c1.9-3.2,4.7-4.8,8.4-4.8c5.8,0,8.7,3.6,8.7,10.8V816.5z"/>
				<path class="st7" d="M1106.9,817.1c-4.4,0-7.8-1.2-10.3-3.7c-2.5-2.4-3.7-5.8-3.7-9.9c0-4.3,1.3-7.7,3.9-10.1
					c2.6-2.4,6.1-3.7,10.5-3.7c4.3,0,7.7,1.2,10.2,3.7c2.5,2.4,3.7,5.7,3.7,9.7c0,4.3-1.3,7.8-3.8,10.3
					C1114.8,815.9,1111.3,817.1,1106.9,817.1z M1107.1,795.9c-1.9,0-3.4,0.7-4.4,2c-1.1,1.3-1.6,3.2-1.6,5.6c0,5,2,7.5,6.1,7.5
					c3.9,0,5.8-2.6,5.8-7.7C1112.9,798.4,1111,795.9,1107.1,795.9z"/>
				<path class="st7" d="M1142.6,784c-1-0.4-2-0.6-3-0.6c-2.6,0-3.9,1.4-3.9,4.2v2.8h6v5.9h-6v20.2h-8v-20.2h-4.4v-5.9h4.4v-3.2
					c0-3,1-5.4,2.9-7.2c1.9-1.8,4.6-2.7,7.9-2.7c1.6,0,3,0.2,4.1,0.5V784z"/>
				<path class="st7" d="M1175.8,816.2c-1.2,0.6-3,0.9-5.4,0.9c-5.7,0-8.5-3-8.5-8.8v-12h-4.2v-5.9h4.2v-5.6l8-2.3v7.9h5.9v5.9h-5.9
					v10.6c0,2.7,1.1,4.1,3.2,4.1c0.8,0,1.7-0.2,2.6-0.7V816.2z"/>
				<path class="st7" d="M1205.4,816.5h-8v-14.8c0-3.8-1.4-5.7-4.2-5.7c-1.4,0-2.6,0.5-3.5,1.6s-1.3,2.4-1.3,4.1v14.9h-8.1v-38.7
					h8.1v16.4h0.1c2-3,4.6-4.5,8-4.5c5.9,0,8.9,3.6,8.9,10.7V816.5z"/>
				<path class="st7" d="M1235.3,805.7h-17c0.3,3.8,2.7,5.7,7.2,5.7c2.9,0,5.4-0.7,7.6-2v5.8c-2.4,1.3-5.6,1.9-9.4,1.9
					c-4.2,0-7.5-1.2-9.8-3.5c-2.3-2.3-3.5-5.6-3.5-9.8c0-4.3,1.3-7.8,3.8-10.3c2.5-2.5,5.6-3.8,9.3-3.8c3.8,0,6.8,1.1,8.8,3.4
					c2.1,2.3,3.1,5.3,3.1,9.2V805.7z M1227.8,800.8c0-3.7-1.5-5.6-4.5-5.6c-1.3,0-2.4,0.5-3.4,1.6s-1.5,2.4-1.7,4H1227.8z"/>
			</g>
		</g>
	</g>
</g>
</svg>
