<?xml version="1.0" encoding="utf-8"?>
<!-- Generator: Adobe Illustrator 22.0.1, SVG Export Plug-In . SVG Version: 6.00 Build 0)  -->
<svg version="1.1" id="Layer_1" xmlns="http://www.w3.org/2000/svg" xmlns:xlink="http://www.w3.org/1999/xlink" x="0px" y="0px"
	 viewBox="0 0 1152 648" style="enable-background:new 0 0 1152 648;" xml:space="preserve">
<style type="text/css">
	.st0{fill:#ED2024;}
	.st1{fill:none;stroke:#ED1C24;stroke-width:6;stroke-miterlimit:10;}
</style>
<g>
	<g>
		<path class="st0" d="M342.2,463.3c2.3,4,4.3,8.2,5.9,12.6c1.6,4.4,2.9,8.9,3.7,13.5c0.8,4.6,1.2,9.2,1.2,13.8
			c0,4.7-0.6,9.2-1.6,13.7c-0.9,3.8-2.1,7.5-3.7,11.1c-1.6,3.6-3.6,7-6,10.3c-2.4,3.3-5.3,6.4-8.6,9.3c-3.3,2.9-7.1,5.7-11.5,8.2
			c-6.6,3.8-13.1,6.2-19.5,7c-6.4,0.8-12.5,0.4-18.3-1.4c-5.8-1.7-11.1-4.7-16-8.8c-4.9-4.1-9.1-9.2-12.7-15.3
			c-2.5-4.3-4.6-8.8-6.3-13.4c-1.7-4.6-2.9-9.3-3.7-14c-0.7-4.7-1-9.5-0.8-14.3c0.2-4.8,0.9-9.5,2.2-14.1c1-3.6,2.3-7,4-10.4
			c1.6-3.3,3.6-6.6,6-9.7c2.3-3.1,5.1-6,8.2-8.8c3.2-2.8,6.8-5.3,10.8-7.7c6.1-3.6,12.3-5.9,18.6-6.9c6.2-1,12.3-0.8,18,0.8
			c5.8,1.5,11.2,4.4,16.4,8.5C333.8,451.2,338.3,456.6,342.2,463.3z M318.9,477.8c-2.2-3.7-4.6-6.8-7.3-9.2
			c-2.7-2.4-5.5-4.1-8.4-5.2c-3-1-6-1.4-9.2-1c-3.2,0.4-6.3,1.5-9.5,3.4c-3.7,2.2-6.7,5.1-9,8.7c-2.3,3.7-3.9,7.8-4.7,12.3
			c-0.5,2.8-0.6,5.7-0.4,8.8c0.2,3.1,0.7,6.2,1.4,9.4c0.7,3.2,1.7,6.3,2.9,9.3c1.2,3.1,2.6,5.9,4.2,8.7c2.2,3.7,4.6,6.8,7.3,9.2
			c2.7,2.4,5.5,4.1,8.4,5.1c2.9,1,5.9,1.3,9,0.9c3.1-0.4,6.2-1.5,9.2-3.2c3.8-2.2,6.9-5.1,9.4-8.8c2.5-3.7,4-7.9,4.7-12.7
			c0.5-2.9,0.6-5.9,0.4-9c-0.2-3.1-0.7-6.2-1.4-9.3c-0.7-3.1-1.7-6.1-2.9-9.1S320.4,480.4,318.9,477.8z"/>
		<path class="st0" d="M441.9,483.3l-59.3,34.6l-36.8-111.7l22.6-13.2l30,91l36.7-21.4L441.9,483.3z"/>
		<path class="st0" d="M521.3,357.8c3,5.2,5.5,10.6,7.3,16.2c1.8,5.6,3,11.2,3.4,16.8c0.4,5.6,0,11.2-1.1,16.8
			c-1.2,5.6-3.2,11-6.1,16.2c-2.9,5.2-6.8,10.2-11.6,15c-4.8,4.8-10.7,9.2-17.6,13.2l-40.2,23.4l-36.8-111.7l34.9-20.4
			c7.3-4.3,14.3-7,21-8.2c6.7-1.2,12.9-1.2,18.7,0.2c5.8,1.4,11.1,3.9,15.8,7.8C513.7,347,517.8,351.8,521.3,357.8z M498.6,373.3
			c-2.2-3.7-4.6-6.7-7.4-9c-2.7-2.3-5.8-3.9-9.1-4.7c-3.3-0.8-7-0.8-10.9,0.1c-3.9,0.8-8.1,2.5-12.6,5.2l-10.9,6.3l23.3,70.8l13.7-8
			c5.6-3.3,10.2-7.2,13.6-11.7c3.4-4.5,5.7-9.4,6.9-14.7c1.2-5.3,1.2-10.9,0.1-16.7C504.3,385.1,502,379.2,498.6,373.3z"/>
		<path class="st0" d="M627.2,273c-1.9,0-4,0-6.3,0.2c-2.2,0.2-4.5,0.5-6.9,1c-2.3,0.5-4.7,1.2-7.1,2c-2.4,0.9-4.8,2-7.2,3.3
			c-2.6,1.5-4.6,3.2-6,5c-1.4,1.8-2.3,3.5-2.7,5.2c-0.4,1.7-0.5,3.3-0.3,4.8c0.3,1.5,0.7,2.8,1.3,3.8c0.9,1.5,1.9,2.8,3.2,3.8
			c1.2,1,2.7,1.8,4.4,2.3c1.7,0.6,3.8,1,6.2,1.2c2.4,0.2,5.2,0.4,8.5,0.5c4.3,0.1,8.2,0.4,11.8,1c3.6,0.6,6.9,1.4,9.9,2.7
			c3,1.2,5.7,2.9,8.1,5.1c2.4,2.1,4.6,4.8,6.5,8.1c1.1,1.9,2.1,4.1,3,6.6c0.9,2.5,1.5,5.2,1.7,8.1c0.3,2.9,0.1,6-0.5,9.2
			c-0.6,3.2-1.9,6.5-3.8,9.7c-1.9,3.3-4.5,6.5-7.9,9.8s-7.7,6.5-13,9.5c-3,1.7-5.9,3.2-9,4.4c-3,1.2-6,2.3-8.9,3.1
			c-2.9,0.8-5.7,1.4-8.3,1.8c-2.7,0.4-5.1,0.7-7.2,0.8l-7.7-21.9c2.4,0.3,5,0.3,7.6,0.3c2.7-0.1,5.3-0.3,8-0.8c2.7-0.4,5.3-1.1,8-2
			s5.1-2.1,7.5-3.5c2.6-1.5,4.7-3.1,6.2-4.8c1.5-1.7,2.5-3.3,3.1-5c0.6-1.7,0.7-3.4,0.4-5c-0.3-1.6-0.9-3.2-1.7-4.7
			c-0.9-1.5-1.9-2.8-3.1-3.7c-1.2-0.9-2.7-1.7-4.5-2.1c-1.8-0.5-3.9-0.8-6.5-1c-2.5-0.2-5.6-0.2-9.1-0.2c-3.7,0.1-7.3-0.1-10.7-0.6
			c-3.4-0.5-6.5-1.4-9.5-2.6s-5.7-3-8.2-5.2c-2.5-2.2-4.8-5-6.7-8.4c-2.2-3.8-3.7-8-4.4-12.6c-0.7-4.5-0.4-9.1,0.9-13.8
			c1.4-4.7,3.9-9.3,7.6-13.8c3.7-4.5,8.8-8.7,15.4-12.5c2.7-1.6,5.4-3,8.2-4.2c2.7-1.2,5.4-2.2,8-3c2.6-0.8,5.1-1.5,7.5-2.1
			c2.4-0.5,4.6-0.9,6.7-1.2L627.2,273z"/>
		<path class="st0" d="M736.7,311.5l-59.3,34.6l-36.8-111.7l22.6-13.2l30,91l36.7-21.4L736.7,311.5z"/>
		<path class="st0" d="M772.7,290.5l-22.6,13.2l-36.9-111.6l22.6-13.2L772.7,290.5z"/>
		<path class="st0" d="M861.1,159.7c3,5.2,5.5,10.6,7.3,16.2c1.8,5.6,3,11.2,3.4,16.8c0.4,5.6,0,11.2-1.1,16.8
			c-1.2,5.6-3.2,11-6.1,16.2c-2.9,5.2-6.8,10.2-11.6,15c-4.8,4.8-10.7,9.2-17.6,13.2l-40.2,23.4l-36.8-111.7l34.9-20.4
			c7.3-4.3,14.3-7,21-8.2c6.7-1.2,12.9-1.2,18.7,0.2c5.8,1.4,11.1,3.9,15.8,7.8C853.6,148.9,857.7,153.8,861.1,159.7z M838.4,175.3
			c-2.2-3.7-4.6-6.7-7.4-9c-2.8-2.3-5.8-3.9-9.1-4.7c-3.3-0.8-7-0.8-10.9,0.1c-3.9,0.8-8.1,2.5-12.6,5.2l-10.9,6.3l23.3,70.8l13.7-8
			c5.6-3.3,10.2-7.2,13.6-11.7c3.4-4.5,5.7-9.4,6.9-14.7c1.2-5.3,1.2-10.9,0.1-16.7C844.1,187,841.9,181.2,838.4,175.3z"/>
		<path class="st0" d="M929.2,90.6l-34.7,20.2l8.3,25.1l32.4-18.9l6.7,20.6l-32.2,18.8l8.2,25.1l37.1-21.6l6.7,20.4L902,215.2
			l-36.8-111.7l57.3-33.4L929.2,90.6z"/>
	</g>
	<polygon class="st1" points="992.1,187.1 257.2,615.4 202.8,460.9 937.7,32.6 	"/>
</g>
</svg>
