<?xml version="1.0" encoding="UTF-8" standalone="no"?>
<!-- Created with Inkscape (http://www.inkscape.org/) -->

<svg
   xmlns:dc="http://purl.org/dc/elements/1.1/"
   xmlns:cc="http://creativecommons.org/ns#"
   xmlns:rdf="http://www.w3.org/1999/02/22-rdf-syntax-ns#"
   xmlns:svg="http://www.w3.org/2000/svg"
   xmlns="http://www.w3.org/2000/svg"
   xmlns:sodipodi="http://sodipodi.sourceforge.net/DTD/sodipodi-0.dtd"
   xmlns:inkscape="http://www.inkscape.org/namespaces/inkscape"
   width="955.07306mm"
   height="215.14888mm"
   viewBox="0 0 955.07306 215.14888"
   version="1.1"
   id="svg8"
   inkscape:version="0.92.2 (5c3e80d, 2017-08-06)"
   sodipodi:docname="hercuNES logo.svg"
   inkscape:export-filename="C:\Users\Ben\Desktop\hercuNES logo-100y.png"
   inkscape:export-xdpi="11.808103"
   inkscape:export-ydpi="11.808103">
  <defs
     id="defs2" />
  <sodipodi:namedview
     id="base"
     pagecolor="#ffffff"
     bordercolor="#666666"
     borderopacity="1.0"
     inkscape:pageopacity="0.0"
     inkscape:pageshadow="2"
     inkscape:zoom="0.7"
     inkscape:cx="2184.3675"
     inkscape:cy="226.85522"
     inkscape:document-units="mm"
     inkscape:current-layer="g826"
     showgrid="false"
     inkscape:pagecheckerboard="true"
     inkscape:window-width="3840"
     inkscape:window-height="2097"
     inkscape:window-x="-8"
     inkscape:window-y="-8"
     inkscape:window-maximized="1" />
  <metadata
     id="metadata5">
    <rdf:RDF>
      <cc:Work
         rdf:about="">
        <dc:format>image/svg+xml</dc:format>
        <dc:type
           rdf:resource="http://purl.org/dc/dcmitype/StillImage" />
        <dc:title />
      </cc:Work>
    </rdf:RDF>
  </metadata>
  <g
     inkscape:label="Layer 1"
     inkscape:groupmode="layer"
     id="layer1"
     transform="translate(286.82277,-149.45748)">
    <g
       id="g826"
       transform="translate(0,4.8046875e-6)">
      <g
         id="g829">
        <path
           sodipodi:nodetypes="csccccssccccscccccsccccccscccccccscccccccccccccccccccccccccccccccccccc"
           inkscape:connector-curvature="0"
           id="path830"
           d="m 570.87633,364.03089 c 17.05528,-2.21496 31.22303,-7.68487 43.12709,-16.65062 8.98189,-6.76487 15.58845,-17.42705 21.4441,-34.60819 4.66606,-13.69068 7.35195,-26.25389 7.71126,-36.0694 0.47006,-12.83998 -2.60429,-19.77592 -13.66652,-30.83281 -5.87108,-5.86822 -10.37432,-9.63635 -21.04144,-17.60659 -6.91497,-5.16669 -10.51105,-8.46363 -11.5211,-10.56269 -1.53098,-3.18165 -0.78351,-10.36039 1.90087,-18.25625 1.6292,-4.79215 3.9641,-8.35637 6.40607,-9.77894 2.54151,-1.48055 5.44211,-1.5239 6.86345,-0.10257 0.78063,0.78064 0.78708,0.81114 0.62505,2.9539 -0.20399,2.69749 -0.73784,4.76574 -4.39449,17.02553 -1.60943,5.39592 -2.92621,9.88601 -2.92621,9.97799 0,0.092 12.10683,0.13689 26.9041,0.0998 l 26.90408,-0.0674 1.15326,-3.83646 c 5.44256,-18.10542 7.21315,-26.04662 7.84982,-35.20719 0.15507,-2.23145 -0.23119,-6.54526 -0.76843,-8.58135 -2.71703,-10.2978 -15.38433,-18.63042 -32.54179,-21.40621 -5.41713,-0.8764 -8.36337,-1.07218 -16.00729,-1.0637 -5.68254,0.006 -8.78753,0.13031 -11.41725,0.45597 -24.92134,3.08618 -43.35674,13.49001 -53.7954,30.35886 -6.67393,10.7851 -13.45933,30.22637 -15.51022,44.43945 -0.4853,3.36327 -0.42225,10.97059 0.11735,14.15521 0.98036,5.78596 2.8108,10.44951 5.48338,13.97044 2.82591,3.72292 9.56291,10.00715 20.61797,19.23231 10.24806,8.55174 15.58933,13.4875 18.73449,17.31211 l 1.50614,1.83152 -0.0294,2.93098 c -0.0353,3.51528 -0.81934,7.5203 -2.88484,14.73615 -2.25364,7.87305 -4.00992,11.54187 -6.75378,14.10843 -1.9309,1.80615 -3.36349,2.38239 -5.94238,2.3903 -2.36233,0.007 -3.33116,-0.34634 -4.20955,-1.53643 -1.31495,-1.7816 -0.59909,-5.08694 5.49632,-25.37841 l 4.58992,-15.27969 H 547.9722 521.04343 l -0.27442,0.85989 c -1.48514,4.65373 -6.0806,20.446 -6.91224,23.75382 -2.40927,9.58284 -3.49221,16.72019 -3.53161,23.27587 -0.0367,6.11032 0.58632,9.25473 2.64663,13.35678 3.58942,7.14642 11.95184,13.55201 21.92988,16.79823 3.80627,1.23831 9.89325,2.49902 14.01427,2.90259 1.60073,0.15677 3.32713,0.33271 3.83646,0.391 2.17455,0.24884 15.12599,-0.10292 18.12395,-0.49226 z m -248.6322,-93.36809 -4.44175,89.7805 h 50.45596 l 61.92814,-206.44114 c -16.27858,-0.49449 -32.55959,-0.46303 -48.84306,-0.46303 -9.03717,29.97783 -18.0263,59.97086 -27.03216,89.95834 l 1.85475,-89.96112 -48.2202,0.135 -62.03204,206.77187 h 49.02964 z m 163.40507,89.31748 13.39276,-44.92112 -38.36458,-0.26236 11.6827,-39.02016 h 32.72414 l 13.00774,-43.38619 -32.54375,-0.44789 9.8216,-32.89509 h 35.05382 l 13.54056,-45.17835 -92.61327,-0.19768 -62.03204,206.77187 z"
           style="fill:#ffff00;fill-opacity:1;stroke:none;stroke-width:4;stroke-linecap:round;stroke-linejoin:round;stroke-miterlimit:4;stroke-dasharray:none;stroke-opacity:1" />
        <path
           inkscape:connector-curvature="0"
           id="path828"
           d="m -28.404904,322.48612 c -4.678587,-0.85529 -13.750678,-3.68109 -22.084879,-6.87906 -10.03228,-3.84955 -15.558711,-6.86191 -20.472738,-11.15938 -1.142005,-0.9987 -2.410386,-2.09008 -2.818627,-2.42528 l -0.74226,-0.60944 -0.17735,1.13861 c -0.695343,4.46418 -2.462408,8.78448 -5.083347,12.4283 -1.434822,1.99477 -1.478256,2.02853 -2.556875,1.9872 -0.896062,-0.0343 -1.334675,0.13939 -2.392074,0.94732 -1.148609,0.87762 -1.466432,0.98933 -2.814582,0.98933 -1.30406,0 -1.710838,-0.13145 -2.86599,-0.92604 -1.043287,-0.71766 -1.610971,-0.92604 -2.522712,-0.92604 -1.127178,0 -1.18967,-0.0416 -1.491075,-0.99219 -0.506849,-1.59856 -0.971529,-2.14424 -1.98841,-2.335 l -0.943052,-0.17693 0.168082,-1.35678 c 0.121385,-0.97986 0.01786,-1.89741 -0.372663,-3.30266 -0.29741,-1.07022 -0.519594,-2.02272 -0.493739,-2.11667 0.02585,-0.094 -0.110662,-0.45575 -0.303369,-0.80402 -0.192704,-0.34824 -0.686699,-1.62816 -1.097766,-2.84427 l -0.74739,-2.21107 h 0.59387 c 0.577998,0 0.59114,-0.0619 0.491504,-2.3151 -0.09233,-2.08801 0.01929,-2.78225 1.137922,-7.07761 1.12059,-4.30284 1.225069,-4.95403 1.082493,-6.74687 -0.08679,-1.09141 -0.237284,-2.26981 -0.334423,-2.61868 -0.160573,-0.57668 -0.114541,-0.61872 0.506828,-0.46276 0.659159,0.16544 0.689951,0.11943 0.866658,-1.29489 0.100769,-0.80653 0.127876,-2.13375 0.06024,-2.94937 -0.09868,-1.18999 0.02688,-1.88041 0.635571,-3.49478 1.104567,-2.92952 2.13791,-7.06717 3.654661,-14.63376 1.664901,-8.30568 2.590615,-11.88864 3.892206,-15.06474 l 1.014613,-2.47581 1.979547,0.0137 c 2.316596,0.016 3.774561,0.38982 5.143172,1.31858 l 0.987258,0.66997 1.019304,-1.15799 c 1.878992,-2.13464 3.300558,-3.98818 7.013872,-9.14519 6.139783,-8.52686 9.778565,-12.45916 13.708657,-14.81446 1.838606,-1.10188 5.264856,-2.29742 7.6786,-2.67934 l 1.821317,-0.28818 4.641443,3.11958 c 4.732364,3.18069 7.595957,5.5835 8.904412,7.4716 0.406519,0.58661 1.776166,1.77113 3.082488,2.66585 2.304761,1.57856 2.350897,1.63114 2.350897,2.6795 0,0.86917 0.196329,1.29239 1.048803,2.26085 1.397709,1.58788 3.292718,5.526 5.449628,11.32512 0.974222,2.61937 1.959345,5.11968 2.189136,5.55625 0.41873,0.79554 0.68371,2.45929 1.000046,6.27908 0.221747,2.67764 -0.582481,6.26794 -2.078488,9.27896 -0.853837,1.7185 -1.577393,2.66854 -3.483504,4.57379 -5.029787,5.02753 -10.144498,7.60847 -23.969371,12.09521 -3.856302,1.25153 -7.237177,2.44118 -7.513055,2.64369 -0.467955,0.34348 -0.396975,0.42757 1.058333,1.25402 0.857962,0.48723 2.957756,1.75919 4.666213,2.8266 1.708454,1.0674 4.000542,2.2988 5.093528,2.73645 2.427782,0.97213 15.771937,4.27262 20.121136,4.97668 1.740456,0.28175 4.533688,0.6582 6.207178,0.83658 2.742115,0.29226 3.103774,0.39283 3.660907,1.01788 1.172872,1.31583 2.356221,3.34545 3.103986,5.32376 0.671777,1.77726 0.754089,2.34337 0.788538,5.42396 0.03321,2.96908 0.09829,3.45128 0.475853,3.52513 0.240559,0.0471 0.437382,0.2074 0.437382,0.35631 0,0.4608 -2.835327,4.64788 -4.011215,5.92357 -1.407319,1.52678 -1.628299,1.6396 -4.700296,2.4003 -2.890706,0.7158 -6.576513,0.80746 -9.67703,0.24064 z m -30.559374,-61.01179 c 2.110052,-0.70063 6.277239,-2.27756 9.260416,-3.50428 l 5.423959,-2.2304 -0.07067,-0.85538 c -0.131702,-1.59405 -1.409626,-3.75256 -3.521697,-5.94839 -1.127403,-1.17212 -2.407277,-2.34021 -2.844165,-2.59576 l -0.794345,-0.46464 -0.609434,0.99381 c -0.33519,0.54659 -2.232638,2.66605 -4.21655,4.7099 -4.100579,4.22447 -5.683306,6.25454 -7.15437,9.17647 -0.566166,1.12455 -1.029391,2.10384 -1.029391,2.1762 0,0.26219 1.795894,-0.20891 5.55625,-1.45753 z M -274.22834,319.5897 c -0.74164,-0.18002 -2.14062,-0.66402 -3.10885,-1.0755 -1.42635,-0.60621 -1.76042,-0.86098 -1.76042,-1.34255 0,-0.7117 -1.21404,-1.83279 -3.23991,-2.99188 -1.50665,-0.86201 -1.77695,-1.30083 -1.78356,-2.89544 -0.003,-0.60675 0.20966,-1.07019 0.69648,-1.52136 0.63166,-0.58541 0.6491,-0.64883 0.17842,-0.64883 -0.77302,0 -1.53475,-0.99116 -2.13507,-2.77813 -0.29332,-0.87312 -0.77551,-2.19183 -1.07155,-2.93045 -0.3512,-0.8763 -0.45534,-1.47391 -0.29968,-1.71979 0.13121,-0.20727 0.41775,-0.98634 0.63675,-1.7313 0.21901,-0.74493 0.57799,-1.50365 0.79774,-1.68603 0.21975,-0.18238 0.39955,-0.49977 0.39955,-0.70533 0,-0.20552 0.31052,-1.31323 0.69004,-2.46155 0.52892,-1.60033 0.63295,-2.25909 0.44554,-2.82133 -0.20849,-0.62545 -0.0349,-1.1448 1.17802,-3.52531 1.5681,-3.07752 2.29707,-5.92264 2.61348,-10.20016 0.15317,-2.07083 0.27438,-2.5066 0.92981,-3.34283 2.0576,-2.6252 3.00834,-6.27537 2.80912,-10.78504 -0.15189,-3.43833 0.011,-4.17057 0.98192,-4.41426 0.36895,-0.0926 0.67318,-0.24475 0.67606,-0.33812 0.003,-0.0934 0.12569,-1.00319 0.27291,-2.02183 0.14721,-1.01865 0.49714,-4.90286 0.77761,-8.63157 0.91312,-12.13944 2.15473,-18.32438 4.68785,-23.35201 0.75307,-1.49467 2.70699,-3.67896 4.04597,-4.523 1.15472,-0.7279 4.29024,-1.9903 4.94345,-1.9903 0.37591,0 0.664,0.51966 1.25804,2.26927 0.98488,2.90075 2.55031,5.45322 6.92608,11.29316 1.93644,2.58438 3.98703,5.50141 4.55688,6.48229 l 1.03609,1.78341 -0.2248,2.91041 c -0.33599,4.34977 -0.72817,7.24187 -1.57869,11.64167 -0.73981,3.82708 -2.24477,12.21805 -2.54375,14.18274 -0.12357,0.81201 -0.0622,0.97527 0.41371,1.09971 0.30736,0.0804 0.55883,0.33588 0.55883,0.56778 0,0.2319 0.0298,0.42011 0.0661,0.41823 0.0364,-0.002 0.80059,-0.23368 1.69824,-0.51512 0.89764,-0.28144 3.69561,-0.94246 6.2177,-1.46894 6.87788,-1.43574 10.11225,-2.19185 13.18303,-3.08182 3.09232,-0.89622 7.33074,-2.52609 7.56821,-2.91033 0.0848,-0.13724 0.37148,-1.70196 0.63701,-3.47714 0.26553,-1.77519 0.80225,-5.01355 1.1927,-7.19636 0.54669,-3.05622 0.71862,-4.91169 0.74775,-8.06979 0.0208,-2.25557 -0.0531,-4.53306 -0.16431,-5.06107 -0.20695,-0.9829 0.14206,-1.59058 2.21055,-3.84889 0.47489,-0.51846 0.49659,-0.69715 0.21869,-1.80078 -0.45636,-1.81237 -0.15354,-7.21373 0.53916,-9.61684 1.48426,-5.14918 4.16083,-8.26564 8.21989,-9.5708 l 1.91501,-0.61576 0.48275,0.63884 c 1.09579,1.45009 2.63024,4.27098 3.94699,7.25603 3.45932,7.84226 5.81142,11.88991 7.86395,13.53279 l 1.04369,0.83539 0.32472,4.85315 c 0.17859,2.66923 0.42502,7.2344 0.54761,10.14481 0.22156,5.25972 0.21824,5.31306 -0.54956,8.83422 -0.42485,1.94841 -1.23768,5.40122 -1.80628,7.67292 -1.13488,4.53413 -1.66738,7.19281 -2.1256,10.61266 -0.2162,1.61356 -0.48802,2.52119 -0.96209,3.21253 -0.36342,0.52996 -1.36052,2.69582 -2.21578,4.81302 -1.50799,3.73306 -2.04577,4.8183 -2.87922,5.8103 -0.52068,0.61976 -0.42978,5.24621 0.12412,6.31735 0.50378,0.9742 0.48113,4.35885 -0.0427,6.38035 -1.07436,4.1461 -4.0798,7.69697 -8.34746,9.86237 -1.45514,0.73832 -7.23875,2.76241 -7.89331,2.76241 -0.25231,0 -1.22134,-0.49416 -2.15341,-1.09815 -0.93206,-0.60397 -2.26021,-1.33422 -2.95143,-1.62277 -1.3622,-0.56865 -1.38613,-0.60857 -0.98962,-1.65145 0.24541,-0.64551 0.12561,-0.85556 -1.47211,-2.58125 -2.96308,-3.2004 -4.28677,-5.96606 -4.52317,-9.45055 -0.10486,-1.54564 0.0455,-2.91079 0.68008,-6.17461 0.44809,-2.30462 0.81471,-4.25264 0.81471,-4.32892 0,-0.27311 -1.89143,0.22521 -5.6117,1.47846 -6.04938,2.03785 -10.32398,3.94362 -16.49473,7.35396 l -2.65955,1.46984 -0.61466,1.7543 c -0.95933,2.73801 -3.05435,6.90364 -4.25973,8.46981 -0.62748,0.81529 -1.15857,1.83306 -1.24258,2.38125 -0.17125,1.11742 -0.50474,1.61883 -1.07669,1.61883 -0.22518,0 -2.14537,0.83174 -4.26708,1.84833 -4.92824,2.36127 -6.72923,2.73481 -9.70401,2.01265 z m 108.3724,-0.70363 c -7.90124,-0.84344 -14.09777,-3.86093 -16.0273,-7.80476 -0.39266,-0.80258 -1.11668,-1.7912 -1.60892,-2.19697 -0.89307,-0.73612 -0.89643,-0.74763 -1.56256,-5.3472 -0.36715,-2.53521 -0.8385,-5.3499 -1.04742,-6.25488 -0.65073,-2.81866 -0.95637,-7.21606 -0.65115,-9.36818 0.2693,-1.89884 0.75559,-3.14325 2.36499,-6.05203 0.60222,-1.08842 0.80517,-1.79599 0.80521,-2.80726 6e-5,-1.16888 0.11955,-1.47875 0.88204,-2.28722 0.48508,-0.51434 1.08884,-0.97748 1.34168,-1.02919 0.30852,-0.0631 0.79187,-0.96415 1.46977,-2.73987 0.55554,-1.45521 2.5043,-5.67656 4.33057,-9.38079 l 3.32051,-6.73496 -1.02549,-1.11253 c -1.85003,-2.00704 -3.26375,-5.63436 -4.06138,-10.42068 -0.23039,-1.38245 -0.61909,-3.70417 -0.86379,-5.15937 -0.75886,-4.51288 -0.80686,-4.059 0.61498,-5.81482 3.10722,-3.83707 7.23432,-5.76312 16.41756,-7.66181 2.43585,-0.50362 6.33382,-1.46472 8.66216,-2.13576 8.14605,-2.34777 14.22614,-3.50486 27.11979,-5.16115 4.5839,-0.58885 9.40593,-1.23189 10.71562,-1.429 1.30969,-0.19711 3.0361,-0.37868 3.83646,-0.40349 0.80036,-0.0248 1.49277,-0.1512 1.53867,-0.28087 0.0459,-0.12968 1.3556,0.75002 2.91042,1.95487 3.70621,2.872 4.77556,3.5799 7.392487,4.89379 l 2.184284,1.09667 -0.04692,3.40455 -0.04693,3.40455 -1.418145,2.01681 c -1.781416,2.53344 -4.290286,4.62438 -7.354496,6.12938 -3.11311,1.52901 -5.8048,2.2693 -11.91487,3.27693 -8.46756,1.39641 -12.50157,2.49952 -16.53638,4.52194 -1.67315,0.83865 -2.18258,0.97775 -3.175,0.86695 -0.67142,-0.075 -1.88438,0.0506 -2.80777,0.29059 -0.89413,0.23242 -2.20382,0.42336 -2.91041,0.42432 -0.83349,0.001 -1.56352,0.18552 -2.07848,0.52497 -0.43656,0.28777 -1.41351,0.66193 -2.17101,0.83146 -1.20098,0.2688 -1.3449,0.36869 -1.12447,0.78056 0.13902,0.25977 0.25277,1.00034 0.25277,1.64571 0,1.15039 0.0195,1.17662 0.99219,1.3374 1.59832,0.26419 4.60954,0.19625 10.12031,-0.22831 9.37404,-0.72221 14.39114,-0.91965 14.61035,-0.57498 0.10902,0.17141 0.20137,0.7879 0.20524,1.36999 0.006,0.97638 0.20322,1.25988 2.5406,3.66113 2.61229,2.68367 3.65591,3.35033 5.24481,3.35033 0.84344,0 0.97098,0.10727 1.49417,1.25677 0.68765,1.5108 0.97156,4.63291 0.53807,5.91691 -0.25653,0.75983 -1.02194,1.37215 -5.03308,4.0264 -5.19123,3.43515 -8.26315,5.04976 -11.60577,6.10004 -2.622,0.82385 -6.55656,1.33086 -8.69422,1.12035 -2.08117,-0.20495 -1.94827,-0.20424 -5.25329,-0.0283 -4.1869,0.22293 -4.19777,0.22281 -7.58884,-0.0835 -1.7,-0.15357 -3.32535,-0.40468 -3.61188,-0.55802 -0.46989,-0.25148 -0.67498,-0.0134 -2.09194,2.42848 -3.37045,5.80838 -5.67441,10.02219 -5.54856,10.14802 0.0725,0.0725 1.35939,0.25474 2.85987,0.40505 3.02092,0.30266 7.37212,0.0542 14.65843,-0.83714 2.32833,-0.28482 5.84068,-0.56737 7.80521,-0.62791 3.04416,-0.0938 3.83647,-0.21164 5.36284,-0.79761 0.98502,-0.37814 3.72715,-1.03727 6.09361,-1.46471 2.36646,-0.42741 5.16277,-1.0155 6.21402,-1.3068 l 1.91138,-0.52967 1.32501,0.71112 c 0.93794,0.50337 1.88669,1.40676 3.24767,3.09237 1.77399,2.19715 2.00386,2.38786 2.97312,2.46692 1.64574,0.13425 2.41002,1.06495 3.02573,3.68464 0.31633,1.34589 0.355,1.38907 1.24396,1.38907 1.0784,0 1.07233,0.0601 -0.31168,3.08506 -2.412,5.27185 -5.25702,8.22929 -10.3676,10.77725 -3.25194,1.62131 -6.70502,2.51994 -15.02952,3.91131 -7.24551,1.21102 -8.07844,1.30146 -9.55417,1.03719 -1.34485,-0.24082 -2.21231,-0.19812 -5.15937,0.25392 -8.07767,1.23905 -15.05261,1.59078 -20.34375,1.02595 z m 204.655201,-0.79102 c -7.95012,-0.67628 -16.059308,-2.27066 -25.003124,-4.91591 l -4.1010416,-1.21295 -1.9843749,-2.05307 c -1.9078575,-1.97389 -3.2828706,-2.90856 -4.823407,-3.27871 -0.93472,-0.22458 -4.843092,-4.07392 -6.213078,-6.11923 -2.6242433,-3.91782 -5.0682524,-10.03157 -6.1345761,-15.34584 -0.7927714,-3.95085 -1.0703454,-6.62348 -1.2503154,-12.03854 -0.158511,-4.76918 -0.145838,-4.93892 0.493686,-6.61458 2.1740287,-5.69626 5.435812,-10.45248 12.2478537,-17.85938 3.0634781,-3.33099 3.770577,-3.96834 4.4003382,-3.96619 0.4126707,0.001 0.7503319,-0.0906 0.7503319,-0.20435 0,-0.47085 2.3572787,-2.71061 4.5354872,-4.30937 1.282118,-0.94104 2.589901,-2.06099 2.906157,-2.48878 0.424048,-0.57354 1.059101,-0.9248 2.418424,-1.33769 2.991273,-0.90857 4.323741,-1.60813 8.925348,-4.68594 4.571339,-3.05757 7.090833,-4.44262 9.525,-5.23621 0.800364,-0.26093 1.931458,-0.86181 2.513541,-1.33529 0.582084,-0.47347 3.022865,-1.81987 5.423959,-2.99198 2.829348,-1.38117 4.846478,-2.55393 5.732039,-3.33263 l 1.366387,-1.2015 0.797269,0.45756 c 0.714375,0.41 0.929931,0.41973 2.073196,0.0936 2.189718,-0.62462 2.921873,-0.64145 3.984387,-0.0915 0.547608,0.28342 1.456928,0.58883 2.020676,0.67868 1.142179,0.18206 2.017712,0.83345 2.017712,1.5012 0,0.50244 1.568635,1.44963 2.850303,1.72109 0.652595,0.13822 0.994172,0.43484 1.386629,1.20408 0.286385,0.56138 0.456565,1.18781 0.378195,1.39208 -0.09763,0.25443 0.251116,0.52174 1.107334,0.84873 1.779032,0.67942 3.866277,2.81272 4.535858,4.63597 1.73056,4.71209 0.339249,9.50726 -4.034102,13.9037 -2.645727,2.65972 -4.158536,3.42974 -9.796092,4.98623 -11.302444,3.12054 -16.475842,5.51997 -20.902083,9.69441 -0.895905,0.84495 -1.792631,1.39636 -2.778125,1.70835 -4.12361,1.30544 -8.201792,4.07793 -14.303877,9.72428 -4.77737,4.42057 -5.560378,5.38113 -5.842767,7.16753 -0.147003,0.92983 -0.553641,1.84152 -1.282145,2.87455 -1.034203,1.46647 -1.058545,1.55004 -0.794861,2.72669 0.149622,0.66761 0.732843,2.13 1.296035,3.24973 l 1.024017,2.03592 2.874195,0.7316 c 9.2125,2.34492 16.426312,3.08785 35.101847,3.61495 l 7.885985,0.22259 0.977556,1.14893 c 0.53766,0.6319 1.962891,2.15485 3.167195,3.38428 1.618589,1.65238 2.463853,2.78324 3.241146,4.33621 0.98462,1.9672 1.051507,2.24761 1.051507,4.40804 v 2.30722 l -1.785938,1.71092 c -2.425488,2.32363 -8.643381,7.09991 -9.600035,7.37426 -0.42672,0.1224 -2.534047,0.15944 -4.682966,0.0823 -3.168095,-0.11369 -4.28244,-0.0521 -5.891477,0.32578 -2.430198,0.57071 -4.356418,0.66157 -7.805209,0.3682 z m 70.379169,-1.18513 c -0.14552,-0.055 -2.82443,-0.22492 -5.95313,-0.37769 -8.451874,-0.4127 -8.620361,-0.43958 -9.229723,-1.47238 -0.331973,-0.56266 -0.859975,-0.97605 -1.525931,-1.1947 -2.891817,-0.94948 -4.60301,-2.80156 -7.078213,-7.66106 -2.429457,-4.76967 -4.469103,-9.44975 -4.26339,-9.78257 0.08546,-0.1383 0.569251,-0.32912 1.075082,-0.424 0.50583,-0.0949 0.972978,-0.25876 1.038092,-0.36414 0.06514,-0.10539 -0.639312,-0.74798 -1.565433,-1.42796 -0.926095,-0.68001 -2.033085,-1.63415 -2.459938,-2.12032 -0.771895,-0.87913 -0.777028,-0.90739 -0.949563,-5.22274 -0.781764,-19.55326 -0.457702,-26.44224 1.588003,-33.75757 0.550889,-1.96986 0.626824,-2.58344 0.400262,-3.2334 -0.220583,-0.6327 -0.169863,-1.18117 0.24003,-2.59587 0.285829,-0.98652 0.928105,-4.1154 1.427268,-6.95305 0.499189,-2.83766 1.121119,-5.85608 1.382077,-6.70762 0.45265,-1.47689 0.534115,-1.57084 1.767973,-2.03888 1.527624,-0.57946 2.263801,-1.22315 3.369389,-2.94605 0.90641,-1.41252 1.148318,-1.4786 3.701547,-1.01107 1.691534,0.30974 2.579926,1.17422 4.030451,3.92195 1.4088,2.66868 2.14974,3.54033 3.794972,4.46441 1.452825,0.816 1.521905,0.90626 2.227815,2.91042 0.40069,1.13756 1.51763,4.0072 2.48211,6.37697 2.63763,6.48073 3.02093,8.90322 1.83362,11.588 -0.76679,1.73381 -1.75104,5.33715 -2.2706,8.3127 -0.21651,1.23994 -0.34007,4.0688 -0.32933,7.54063 0.0175,5.64813 0.24442,7.4907 1.32977,10.79701 0.48257,1.47008 0.21484,1.45505 4.59825,0.2581 6.24252,-1.70462 11.09382,-4.05368 16.00729,-7.75092 11.17266,-8.40712 18.02534,-19.68728 21.15608,-34.82491 0.71329,-3.44877 1.46579,-8.79765 1.46579,-10.41886 0,-0.5689 0.14883,-1.15632 0.33073,-1.30538 0.1819,-0.14906 0.72792,-0.58968 1.21341,-0.97916 1.27457,-1.02254 1.46356,-1.72286 0.92551,-3.42974 -0.42344,-1.34329 -0.42328,-1.50987 0.003,-2.86065 0.59831,-1.89809 2.41943,-3.91238 4.47556,-4.95031 l 1.5788,-0.79697 1.75601,1.17414 c 1.96228,1.31208 5.70156,4.58172 6.89028,6.02492 0.61817,0.75049 0.83611,1.36728 1.06524,3.01473 0.40955,2.94455 0.89884,4.67438 2.65015,9.36938 1.80594,4.84142 2.05311,5.66724 2.3909,7.98744 0.22829,1.56808 0.17717,1.99841 -0.52877,4.45131 -0.42981,1.49347 -1.20266,5.26992 -1.71743,8.39211 l -0.93591,5.67669 -2.50148,4.48126 c -1.37583,2.46469 -3.29221,6.06287 -4.25866,7.99595 -0.96644,1.93308 -2.14005,4.05047 -2.60799,4.70532 -0.46794,0.65484 -1.30331,2.02406 -1.85637,3.0427 -0.55306,1.01865 -1.30151,2.17107 -1.66325,2.56093 l -0.6577,0.70885 -1.1533,-0.56031 c -0.63431,-0.30817 -1.2216,-0.49201 -1.30508,-0.40854 -0.0834,0.0835 -0.28228,0.93953 -0.44183,1.90232 l -0.29009,1.75057 -1.08529,0.27008 c -0.59693,0.14854 -1.26392,0.365 -1.4822,0.48102 -0.21828,0.11602 -1.34937,1.64293 -2.51354,3.39317 -2.73201,4.10734 -4.36753,6.1305 -6.92446,8.56554 -5.25624,5.00573 -11.65691,8.74784 -23.46841,13.72063 -3.47062,1.46119 -4.7362,1.87463 -5.68854,1.85841 -0.67366,-0.0114 -1.3439,-0.0659 -1.48942,-0.12084 z m 71.0394,-23.76355 c -1.48746,-0.4014 -3.40473,-1.7023 -4.43672,-3.0104 -0.43299,-0.54883 -1.37972,-2.1885 -2.10383,-3.64371 -1.12477,-2.26036 -1.28244,-2.76147 -1.08222,-3.43958 0.31355,-1.06213 0.0734,-2.51443 -0.76055,-4.59898 -0.53808,-1.34499 -0.61185,-1.75084 -0.33496,-1.84313 0.19529,-0.0651 0.62037,-0.38366 0.94464,-0.70793 0.47919,-0.4792 0.56282,-0.7889 0.44672,-1.65442 l -0.14282,-1.06486 2.47872,-0.54756 c 1.36327,-0.30116 4.3837,-0.67935 6.71203,-0.84043 4.4142,-0.30538 7.64741,-0.80115 8.62029,-1.32181 0.36176,-0.19361 3.43892,-0.392 8.41052,-0.54224 4.31202,-0.13031 10.63799,-0.35368 14.05773,-0.49637 3.97238,-0.16576 6.5999,-0.16797 7.27604,-0.006 0.58209,0.13932 3.0824,0.38126 5.55625,0.53765 5.26233,0.33265 7.54746,0.75237 9.76469,1.79354 2.013,0.94525 3.20873,1.94361 3.86233,3.2248 0.33931,0.66508 0.7511,1.05315 1.24519,1.17345 1.2547,0.3055 2.68668,1.42115 3.25569,2.53652 0.46239,0.90637 0.53232,1.46811 0.46826,3.76163 l -0.0753,2.69614 -2.24896,1.13269 c -5.17821,2.60805 -12.76054,3.57683 -31.61771,4.03966 -11.61142,0.28501 -19.24426,1.10141 -24.88771,2.662 -2.10974,0.58338 -3.66721,0.62931 -5.4083,0.15947 z"
           style="fill:#010000;stroke-width:0.26458332;fill-opacity:1" />
      </g>
    </g>
  </g>
</svg>
